M48
; DRILL file {KiCad 7.0.2-0} date 2023 December 14, Thursday 06:20:00
; FORMAT={-:-/ absolute / inch / decimal}
; #@! TF.CreationDate,2023-12-14T06:20:00-08:00
; #@! TF.GenerationSoftware,Kicad,Pcbnew,7.0.2-0
; #@! TF.FileFunction,Plated,1,2,PTH
FMAT,2
INCH
; #@! TA.AperFunction,Plated,PTH,ViaDrill
T1C0.0157
; #@! TA.AperFunction,Plated,PTH,ComponentDrill
T2C0.0315
; #@! TA.AperFunction,Plated,PTH,ComponentDrill
T3C0.0394
%
G90
G05
T1
X4.56Y-3.67
X4.56Y-3.75
X4.56Y-4.05
X4.63Y-3.4099
X4.77Y-3.41
X4.77Y-4.5
X4.96Y-4.54
X4.9758Y-4.504
X5.0077Y-4.4809
X5.0299Y-4.39
X5.0302Y-4.2998
X5.05Y-4.21
X5.149Y-3.4689
X5.17Y-3.97
X5.18Y-4.12
X5.2983Y-3.7688
X5.31Y-4.27
X5.36Y-3.4215
X5.43Y-3.42
X5.44Y-3.72
X5.46Y-4.29
X5.52Y-4.22
X5.54Y-3.57
X5.54Y-3.63
X5.54Y-3.74
X5.68Y-3.57
X5.7002Y-4.1
X5.76Y-3.456
X5.79Y-3.57
X5.8571Y-3.4737
X5.8641Y-3.5125
X5.87Y-4.22
X5.89Y-3.57
X5.94Y-3.55
X5.97Y-3.63
X6.0334Y-3.739
X6.06Y-3.46
X6.14Y-3.44
X6.14Y-3.73
X6.17Y-3.8
X6.24Y-3.83
X6.28Y-4.14
X6.51Y-3.44
X6.588Y-3.457
X6.59Y-4.11
X6.688Y-3.475
X6.69Y-4.11
X6.787Y-3.493
X6.9519Y-3.5316
X6.9841Y-3.509
X6.9995Y-3.4707
X7.0219Y-3.4383
X7.14Y-4.31
T2
X4.6394Y-3.465
X4.6394Y-3.565
X4.6394Y-3.865
X4.6394Y-3.965
X4.6394Y-4.265
X4.6394Y-4.365
X4.9394Y-3.465
X4.9394Y-3.565
X4.9394Y-3.865
X4.9394Y-3.965
X4.9394Y-4.265
X4.9394Y-4.365
X5.251Y-4.0656
X5.251Y-4.3656
X5.254Y-3.8568
X5.254Y-3.9552
X5.255Y-3.316
X5.255Y-3.4144
X5.351Y-4.0656
X5.351Y-4.3656
X5.38Y-3.336
X5.38Y-3.936
X5.451Y-4.0656
X5.451Y-4.3656
X5.451Y-4.496
X5.48Y-3.336
X5.48Y-3.936
X5.551Y-4.0656
X5.551Y-4.3656
X5.551Y-4.496
X5.58Y-3.336
X5.58Y-3.936
X5.651Y-4.0656
X5.651Y-4.3656
X5.651Y-4.496
X5.68Y-3.336
X5.68Y-3.936
X5.751Y-4.0656
X5.751Y-4.3656
X5.751Y-4.496
X5.78Y-3.336
X5.78Y-3.936
X5.851Y-4.0656
X5.851Y-4.3656
X5.851Y-4.496
X5.88Y-3.336
X5.88Y-3.936
X5.951Y-4.0656
X5.951Y-4.3656
X5.951Y-4.496
X5.98Y-3.336
X5.98Y-3.936
X6.051Y-4.0656
X6.051Y-4.3656
X6.051Y-4.496
X6.08Y-3.336
X6.08Y-3.936
X6.151Y-4.0656
X6.151Y-4.3656
X6.18Y-3.336
X6.18Y-3.936
X6.251Y-4.0656
X6.251Y-4.3656
X6.28Y-3.336
X6.28Y-3.936
X6.351Y-4.0656
X6.351Y-4.3656
X6.38Y-3.336
X6.38Y-3.936
X6.48Y-3.336
X6.48Y-3.936
X6.58Y-3.336
X6.58Y-3.936
X6.68Y-3.336
X6.68Y-3.936
X6.78Y-3.336
X6.78Y-3.936
X6.88Y-3.336
X6.88Y-3.936
T3
X4.489Y-3.366
X4.489Y-3.466
X4.489Y-3.566
X4.489Y-3.666
X4.489Y-3.766
X4.489Y-3.866
X4.489Y-3.966
X4.489Y-4.066
X4.489Y-4.166
X4.489Y-4.266
X4.489Y-4.366
X4.489Y-4.466
X5.089Y-3.366
X5.089Y-3.466
X5.089Y-3.566
X5.089Y-3.666
X5.089Y-3.766
X5.089Y-3.866
X5.089Y-3.966
X5.089Y-4.066
X5.089Y-4.166
X5.089Y-4.266
X5.089Y-4.366
X5.089Y-4.466
X6.089Y-3.6658
X6.089Y-3.7658
X6.488Y-4.166
X6.488Y-4.266
X6.488Y-4.366
X6.488Y-4.466
X7.089Y-3.366
X7.089Y-3.466
X7.089Y-3.566
X7.089Y-3.666
X7.089Y-3.766
X7.089Y-3.866
X7.089Y-3.966
X7.089Y-4.066
X7.089Y-4.166
X7.089Y-4.266
X7.089Y-4.366
X7.089Y-4.466
T0
M30
