%TF.GenerationSoftware,KiCad,Pcbnew,7.0.2-0*%
%TF.CreationDate,2023-12-14T06:19:47-08:00*%
%TF.ProjectId,c64-rom-326298,6336342d-726f-46d2-9d33-32363239382e,1.0*%
%TF.SameCoordinates,Original*%
%TF.FileFunction,Copper,L1,Top*%
%TF.FilePolarity,Positive*%
%FSLAX46Y46*%
G04 Gerber Fmt 4.6, Leading zero omitted, Abs format (unit mm)*
G04 Created by KiCad (PCBNEW 7.0.2-0) date 2023-12-14 06:19:47*
%MOMM*%
%LPD*%
G01*
G04 APERTURE LIST*
%TA.AperFunction,ComponentPad*%
%ADD10R,1.600000X1.600000*%
%TD*%
%TA.AperFunction,ComponentPad*%
%ADD11O,1.600000X1.600000*%
%TD*%
%TA.AperFunction,ComponentPad*%
%ADD12C,1.600000*%
%TD*%
%TA.AperFunction,ComponentPad*%
%ADD13R,1.700000X1.700000*%
%TD*%
%TA.AperFunction,ComponentPad*%
%ADD14O,1.700000X1.700000*%
%TD*%
%TA.AperFunction,ViaPad*%
%ADD15C,0.800000*%
%TD*%
%TA.AperFunction,Conductor*%
%ADD16C,0.250000*%
%TD*%
%TA.AperFunction,Conductor*%
%ADD17C,1.000000*%
%TD*%
G04 APERTURE END LIST*
D10*
%TO.P,SW103,1*%
%TO.N,VSS*%
X117840600Y-108331000D03*
D11*
%TO.P,SW103,2*%
X117840600Y-110871000D03*
%TO.P,SW103,3*%
%TO.N,Net-(RN101-R6)*%
X125460600Y-110871000D03*
%TO.P,SW103,4*%
%TO.N,Net-(RN101-R5)*%
X125460600Y-108331000D03*
%TD*%
D10*
%TO.P,U101,1,NC*%
%TO.N,VSS*%
X136652000Y-99974400D03*
D11*
%TO.P,U101,2,A16*%
%TO.N,Net-(U101-A16)*%
X139192000Y-99974400D03*
%TO.P,U101,3,A15*%
%TO.N,Net-(U101-A15)*%
X141732000Y-99974400D03*
%TO.P,U101,4,A12*%
%TO.N,Net-(U101-A12)*%
X144272000Y-99974400D03*
%TO.P,U101,5,A7*%
%TO.N,A7*%
X146812000Y-99974400D03*
%TO.P,U101,6,A6*%
%TO.N,A6*%
X149352000Y-99974400D03*
%TO.P,U101,7,A5*%
%TO.N,A5*%
X151892000Y-99974400D03*
%TO.P,U101,8,A4*%
%TO.N,A4*%
X154432000Y-99974400D03*
%TO.P,U101,9,A3*%
%TO.N,A3*%
X156972000Y-99974400D03*
%TO.P,U101,10,A2*%
%TO.N,A2*%
X159512000Y-99974400D03*
%TO.P,U101,11,A1*%
%TO.N,A1*%
X162052000Y-99974400D03*
%TO.P,U101,12,A0*%
%TO.N,A0*%
X164592000Y-99974400D03*
%TO.P,U101,13,D0*%
%TO.N,D0*%
X167132000Y-99974400D03*
%TO.P,U101,14,D1*%
%TO.N,D1*%
X169672000Y-99974400D03*
%TO.P,U101,15,D2*%
%TO.N,D2*%
X172212000Y-99974400D03*
%TO.P,U101,16,GND*%
%TO.N,VSS*%
X174752000Y-99974400D03*
%TO.P,U101,17,D3*%
%TO.N,D3*%
X174752000Y-84734400D03*
%TO.P,U101,18,D4*%
%TO.N,D4*%
X172212000Y-84734400D03*
%TO.P,U101,19,D5*%
%TO.N,D5*%
X169672000Y-84734400D03*
%TO.P,U101,20,D6*%
%TO.N,D6*%
X167132000Y-84734400D03*
%TO.P,U101,21,D7*%
%TO.N,D7*%
X164592000Y-84734400D03*
%TO.P,U101,22,CE*%
%TO.N,Net-(U101-CE)*%
X162052000Y-84734400D03*
%TO.P,U101,23,A10*%
%TO.N,A10*%
X159512000Y-84734400D03*
%TO.P,U101,24,OE*%
%TO.N,Net-(U101-CE)*%
X156972000Y-84734400D03*
%TO.P,U101,25,A11*%
%TO.N,A11*%
X154432000Y-84734400D03*
%TO.P,U101,26,A9*%
%TO.N,A9*%
X151892000Y-84734400D03*
%TO.P,U101,27,A8*%
%TO.N,A8*%
X149352000Y-84734400D03*
%TO.P,U101,28,A13*%
%TO.N,Net-(U101-A13)*%
X146812000Y-84734400D03*
%TO.P,U101,29,A14*%
%TO.N,Net-(U101-A14)*%
X144272000Y-84734400D03*
%TO.P,U101,30,NC*%
%TO.N,VSS*%
X141732000Y-84734400D03*
%TO.P,U101,31,PGM*%
%TO.N,VCC*%
X139192000Y-84734400D03*
%TO.P,U101,32,VCC*%
X136652000Y-84734400D03*
%TD*%
D10*
%TO.P,SW102,1*%
%TO.N,VSS*%
X117840600Y-98171000D03*
D11*
%TO.P,SW102,2*%
X117840600Y-100711000D03*
%TO.P,SW102,3*%
%TO.N,Net-(RN101-R4)*%
X125460600Y-100711000D03*
%TO.P,SW102,4*%
%TO.N,Net-(RN101-R3)*%
X125460600Y-98171000D03*
%TD*%
D10*
%TO.P,SW101,1*%
%TO.N,VSS*%
X117840600Y-88011000D03*
D11*
%TO.P,SW101,2*%
X117840600Y-90551000D03*
%TO.P,SW101,3*%
%TO.N,Net-(RN101-R2)*%
X125460600Y-90551000D03*
%TO.P,SW101,4*%
%TO.N,Net-(RN101-R1)*%
X125460600Y-88011000D03*
%TD*%
D12*
%TO.P,C102,1*%
%TO.N,VCC*%
X133451600Y-100462400D03*
%TO.P,C102,2*%
%TO.N,VSS*%
X133451600Y-97962400D03*
%TD*%
D10*
%TO.P,U102,1,I1/CLK*%
%TO.N,~{BAS}*%
X133375400Y-110886400D03*
D11*
%TO.P,U102,2,I2*%
%TO.N,~{KRN}*%
X135915400Y-110886400D03*
%TO.P,U102,3,I3*%
%TO.N,~{CHR}*%
X138455400Y-110886400D03*
%TO.P,U102,4,I4*%
%TO.N,Net-(RN101-R1)*%
X140995400Y-110886400D03*
%TO.P,U102,5,I5*%
%TO.N,Net-(RN101-R2)*%
X143535400Y-110886400D03*
%TO.P,U102,6,I6*%
%TO.N,Net-(RN101-R3)*%
X146075400Y-110886400D03*
%TO.P,U102,7,I7*%
%TO.N,Net-(RN101-R4)*%
X148615400Y-110886400D03*
%TO.P,U102,8,I8*%
%TO.N,Net-(RN101-R5)*%
X151155400Y-110886400D03*
%TO.P,U102,9,I9*%
%TO.N,Net-(RN101-R6)*%
X153695400Y-110886400D03*
%TO.P,U102,10,I10*%
%TO.N,IA12*%
X156235400Y-110886400D03*
%TO.P,U102,11,I11*%
%TO.N,unconnected-(U102-I11-Pad11)*%
X158775400Y-110886400D03*
%TO.P,U102,12,GND*%
%TO.N,VSS*%
X161315400Y-110886400D03*
%TO.P,U102,13,I12*%
%TO.N,unconnected-(U102-I12-Pad13)*%
X161315400Y-103266400D03*
%TO.P,U102,14,IO1*%
%TO.N,unconnected-(U102-IO1-Pad14)*%
X158775400Y-103266400D03*
%TO.P,U102,15,IO2*%
%TO.N,unconnected-(U102-IO2-Pad15)*%
X156235400Y-103266400D03*
%TO.P,U102,16,IO3*%
%TO.N,unconnected-(U102-IO3-Pad16)*%
X153695400Y-103266400D03*
%TO.P,U102,17,IO4*%
%TO.N,unconnected-(U102-IO4-Pad17)*%
X151155400Y-103266400D03*
%TO.P,U102,18,IO5*%
%TO.N,Net-(U101-A12)*%
X148615400Y-103266400D03*
%TO.P,U102,19,IO6*%
%TO.N,Net-(U101-A13)*%
X146075400Y-103266400D03*
%TO.P,U102,20,IO7*%
%TO.N,Net-(U101-A14)*%
X143535400Y-103266400D03*
%TO.P,U102,21,IO8*%
%TO.N,Net-(U101-A15)*%
X140995400Y-103266400D03*
%TO.P,U102,22,IO9*%
%TO.N,Net-(U101-A16)*%
X138455400Y-103266400D03*
%TO.P,U102,23,IO10*%
%TO.N,Net-(U101-CE)*%
X135915400Y-103266400D03*
%TO.P,U102,24,VCC*%
%TO.N,VCC*%
X133375400Y-103266400D03*
%TD*%
D12*
%TO.P,C101,1*%
%TO.N,VCC*%
X133477000Y-84226400D03*
%TO.P,C101,2*%
%TO.N,VSS*%
X133477000Y-86726400D03*
%TD*%
D10*
%TO.P,RN101,1,common*%
%TO.N,VCC*%
X138455400Y-114198400D03*
D11*
%TO.P,RN101,2,R1*%
%TO.N,Net-(RN101-R1)*%
X140995400Y-114198400D03*
%TO.P,RN101,3,R2*%
%TO.N,Net-(RN101-R2)*%
X143535400Y-114198400D03*
%TO.P,RN101,4,R3*%
%TO.N,Net-(RN101-R3)*%
X146075400Y-114198400D03*
%TO.P,RN101,5,R4*%
%TO.N,Net-(RN101-R4)*%
X148615400Y-114198400D03*
%TO.P,RN101,6,R5*%
%TO.N,Net-(RN101-R5)*%
X151155400Y-114198400D03*
%TO.P,RN101,7,R6*%
%TO.N,Net-(RN101-R6)*%
X153695400Y-114198400D03*
%TD*%
D13*
%TO.P,J1,1,Pin_1*%
%TO.N,A7*%
X114020600Y-85496400D03*
D14*
%TO.P,J1,2,Pin_2*%
%TO.N,A6*%
X114020600Y-88036400D03*
%TO.P,J1,3,Pin_3*%
%TO.N,A5*%
X114020600Y-90576400D03*
%TO.P,J1,4,Pin_4*%
%TO.N,A4*%
X114020600Y-93116400D03*
%TO.P,J1,5,Pin_5*%
%TO.N,A3*%
X114020600Y-95656400D03*
%TO.P,J1,6,Pin_6*%
%TO.N,A2*%
X114020600Y-98196400D03*
%TO.P,J1,7,Pin_7*%
%TO.N,A1*%
X114020600Y-100736400D03*
%TO.P,J1,8,Pin_8*%
%TO.N,A0*%
X114020600Y-103276400D03*
%TO.P,J1,9,Pin_9*%
%TO.N,unconnected-(J1-Pin_9-Pad9)*%
X114020600Y-105816400D03*
%TO.P,J1,10,Pin_10*%
%TO.N,unconnected-(J1-Pin_10-Pad10)*%
X114020600Y-108356400D03*
%TO.P,J1,11,Pin_11*%
%TO.N,unconnected-(J1-Pin_11-Pad11)*%
X114020600Y-110896400D03*
%TO.P,J1,12,Pin_12*%
%TO.N,VSS*%
X114020600Y-113436400D03*
%TD*%
D13*
%TO.P,J4,1,Pin_1*%
%TO.N,D0*%
X164795200Y-105816400D03*
D14*
%TO.P,J4,2,Pin_2*%
%TO.N,D1*%
X164795200Y-108356400D03*
%TO.P,J4,3,Pin_3*%
%TO.N,D2*%
X164795200Y-110896400D03*
%TO.P,J4,4,Pin_4*%
%TO.N,VSS*%
X164795200Y-113436400D03*
%TD*%
D13*
%TO.P,J3,1,Pin_1*%
%TO.N,unconnected-(J3-Pin_1-Pad1)*%
X154660600Y-93111400D03*
D14*
%TO.P,J3,2,Pin_2*%
%TO.N,~{KRN}*%
X154660600Y-95651400D03*
%TD*%
D13*
%TO.P,J5,1,Pin_1*%
%TO.N,VCC*%
X180060600Y-85496400D03*
D14*
%TO.P,J5,2,Pin_2*%
%TO.N,unconnected-(J5-Pin_2-Pad2)*%
X180060600Y-88036400D03*
%TO.P,J5,3,Pin_3*%
%TO.N,unconnected-(J5-Pin_3-Pad3)*%
X180060600Y-90576400D03*
%TO.P,J5,4,Pin_4*%
%TO.N,unconnected-(J5-Pin_4-Pad4)*%
X180060600Y-93116400D03*
%TO.P,J5,5,Pin_5*%
%TO.N,~{CHR}*%
X180060600Y-95656400D03*
%TO.P,J5,6,Pin_6*%
%TO.N,unconnected-(J5-Pin_6-Pad6)*%
X180060600Y-98196400D03*
%TO.P,J5,7,Pin_7*%
%TO.N,unconnected-(J5-Pin_7-Pad7)*%
X180060600Y-100736400D03*
%TO.P,J5,8,Pin_8*%
%TO.N,D7*%
X180060600Y-103276400D03*
%TO.P,J5,9,Pin_9*%
%TO.N,D6*%
X180060600Y-105816400D03*
%TO.P,J5,10,Pin_10*%
%TO.N,D5*%
X180060600Y-108356400D03*
%TO.P,J5,11,Pin_11*%
%TO.N,D4*%
X180060600Y-110896400D03*
%TO.P,J5,12,Pin_12*%
%TO.N,D3*%
X180060600Y-113436400D03*
%TD*%
D13*
%TO.P,J2,1,Pin_1*%
%TO.N,VCC*%
X129260600Y-85496400D03*
D14*
%TO.P,J2,2,Pin_2*%
%TO.N,A8*%
X129260600Y-88036400D03*
%TO.P,J2,3,Pin_3*%
%TO.N,A9*%
X129260600Y-90576400D03*
%TO.P,J2,4,Pin_4*%
%TO.N,IA12*%
X129260600Y-93116400D03*
%TO.P,J2,5,Pin_5*%
%TO.N,~{BAS}*%
X129260600Y-95656400D03*
%TO.P,J2,6,Pin_6*%
%TO.N,A10*%
X129260600Y-98196400D03*
%TO.P,J2,7,Pin_7*%
%TO.N,A11*%
X129260600Y-100736400D03*
%TO.P,J2,8,Pin_8*%
%TO.N,unconnected-(J2-Pin_8-Pad8)*%
X129260600Y-103276400D03*
%TO.P,J2,9,Pin_9*%
%TO.N,unconnected-(J2-Pin_9-Pad9)*%
X129260600Y-105816400D03*
%TO.P,J2,10,Pin_10*%
%TO.N,unconnected-(J2-Pin_10-Pad10)*%
X129260600Y-108356400D03*
%TO.P,J2,11,Pin_11*%
%TO.N,unconnected-(J2-Pin_11-Pad11)*%
X129260600Y-110896400D03*
%TO.P,J2,12,Pin_12*%
%TO.N,unconnected-(J2-Pin_12-Pad12)*%
X129260600Y-113436400D03*
%TD*%
D15*
%TO.N,A7*%
X121158000Y-86614000D03*
X117602000Y-86611498D03*
%TO.N,VSS*%
X121158000Y-114300000D03*
X167386000Y-104394000D03*
X169926000Y-104394000D03*
X134874000Y-108458000D03*
X149098000Y-107188000D03*
X149606000Y-90678000D03*
X147066000Y-90678000D03*
X144272000Y-90678000D03*
X137922000Y-86868000D03*
X140716000Y-94996000D03*
X140716000Y-92202000D03*
X140716000Y-90678000D03*
X115824000Y-102870000D03*
X115824000Y-93218000D03*
X115824000Y-95250000D03*
%TO.N,A2*%
X131572000Y-104648000D03*
X131318000Y-100838000D03*
X159512000Y-105156000D03*
%TO.N,Net-(RN101-R1)*%
X128270000Y-106934000D03*
X140208000Y-107188000D03*
%TO.N,Net-(RN101-R2)*%
X127766989Y-109215011D03*
%TO.N,Net-(RN101-R3)*%
X127759601Y-111506000D03*
%TO.N,Net-(RN101-R4)*%
X127195738Y-113815754D03*
%TO.N,Net-(RN101-R5)*%
X126385160Y-114400535D03*
%TO.N,Net-(RN101-R6)*%
X125984000Y-115316000D03*
%TO.N,A7*%
X146304000Y-87783402D03*
%TO.N,A6*%
X148948165Y-89216255D03*
%TO.N,A5*%
X151638000Y-92202000D03*
%TO.N,A4*%
X153249168Y-94971236D03*
%TO.N,A3*%
X156718000Y-96520000D03*
%TO.N,D4*%
X172389800Y-88722200D03*
X176577660Y-89701768D03*
%TO.N,D5*%
X177396596Y-89128750D03*
X169875200Y-88265000D03*
%TO.N,D6*%
X167335200Y-87807800D03*
X177787791Y-88155781D03*
%TO.N,D7*%
X178356577Y-87333900D03*
X165354000Y-87376000D03*
%TO.N,A11*%
X153924000Y-87884000D03*
X130784775Y-88110296D03*
%TO.N,A10*%
X158496000Y-97282000D03*
%TO.N,~{BAS}*%
X134576500Y-95726604D03*
%TO.N,IA12*%
X155956000Y-94742000D03*
%TO.N,A9*%
X150876000Y-90170000D03*
%TO.N,A8*%
X148769220Y-88232902D03*
%TO.N,~{KRN}*%
X138176000Y-94488000D03*
%TO.N,~{CHR}*%
X138684000Y-108966000D03*
X181356000Y-109474000D03*
%TO.N,Net-(U101-A12)*%
X144784299Y-104140000D03*
%TO.N,Net-(U101-CE)*%
X155956000Y-87376000D03*
X136144000Y-86905500D03*
%TD*%
D16*
%TO.N,A3*%
X154173899Y-96826400D02*
X156411600Y-96826400D01*
X156411600Y-96826400D02*
X156718000Y-96520000D01*
X153760687Y-96413188D02*
X154173899Y-96826400D01*
X134209034Y-96387899D02*
X134272239Y-96451104D01*
X134910351Y-96413188D02*
X153760687Y-96413188D01*
X130190802Y-96387899D02*
X134209034Y-96387899D01*
X115195600Y-96831400D02*
X129747301Y-96831400D01*
X134872435Y-96451104D02*
X134910351Y-96413188D01*
X129747301Y-96831400D02*
X130190802Y-96387899D01*
X134272239Y-96451104D02*
X134872435Y-96451104D01*
X114020600Y-95656400D02*
X115195600Y-96831400D01*
%TO.N,A7*%
X115195600Y-86671400D02*
X117542098Y-86671400D01*
X121215400Y-86671400D02*
X131831009Y-86671400D01*
X117542098Y-86671400D02*
X117602000Y-86611498D01*
X121158000Y-86614000D02*
X121215400Y-86671400D01*
D17*
%TO.N,VSS*%
X133477000Y-86726400D02*
X130355679Y-83605079D01*
X130355679Y-83605079D02*
X122246521Y-83605079D01*
X122246521Y-83605079D02*
X117840600Y-88011000D01*
D16*
%TO.N,~{BAS}*%
X129260600Y-95656400D02*
X134506296Y-95656400D01*
X134506296Y-95656400D02*
X134576500Y-95726604D01*
%TO.N,A10*%
X133971443Y-96900605D02*
X135058624Y-96900605D01*
X152613603Y-96862689D02*
X153032914Y-97282000D01*
X129260600Y-98196400D02*
X130619600Y-96837400D01*
X135058624Y-96900605D02*
X135096540Y-96862689D01*
X133908238Y-96837400D02*
X133971443Y-96900605D01*
X135096540Y-96862689D02*
X152613603Y-96862689D01*
X130619600Y-96837400D02*
X133908238Y-96837400D01*
X153032914Y-97282000D02*
X158496000Y-97282000D01*
D17*
%TO.N,VSS*%
X133451600Y-97962400D02*
X134640000Y-97962400D01*
X134640000Y-97962400D02*
X136652000Y-99974400D01*
D16*
%TO.N,Net-(U101-A12)*%
X147490400Y-104391400D02*
X145035699Y-104391400D01*
X148615400Y-103266400D02*
X147490400Y-104391400D01*
X145035699Y-104391400D02*
X144784299Y-104140000D01*
%TO.N,A7*%
X145695898Y-87783402D02*
X146304000Y-87783402D01*
X145399799Y-88079501D02*
X145695898Y-87783402D01*
X133011009Y-87851400D02*
X136454210Y-87851400D01*
X131831009Y-86671400D02*
X133011009Y-87851400D01*
X136682311Y-88079501D02*
X145399799Y-88079501D01*
X114020600Y-85496400D02*
X115195600Y-86671400D01*
X136454210Y-87851400D02*
X136682311Y-88079501D01*
%TO.N,A9*%
X149323818Y-89865200D02*
X150571200Y-89865200D01*
X149248263Y-89940755D02*
X149323818Y-89865200D01*
X131098326Y-89940755D02*
X149248263Y-89940755D01*
%TO.N,A8*%
X136272549Y-88941119D02*
X136309933Y-88978503D01*
%TO.N,A11*%
X153924000Y-87884000D02*
X153548402Y-87508402D01*
%TO.N,A8*%
X130165319Y-88941119D02*
X136272549Y-88941119D01*
%TO.N,A9*%
X150571200Y-89865200D02*
X150876000Y-90170000D01*
X129260600Y-90576400D02*
X130462681Y-90576400D01*
%TO.N,A11*%
X136268021Y-88300901D02*
X130975380Y-88300901D01*
%TO.N,A6*%
X148748721Y-89415699D02*
X148948165Y-89216255D01*
%TO.N,A8*%
X136309933Y-88978503D02*
X145772177Y-88978503D01*
X129260600Y-88036400D02*
X130165319Y-88941119D01*
%TO.N,A6*%
X136086360Y-89390620D02*
X136123744Y-89428004D01*
X145958366Y-89428004D02*
X145970671Y-89415699D01*
%TO.N,A8*%
X148044717Y-88957405D02*
X148769220Y-88232902D01*
%TO.N,A9*%
X130462681Y-90576400D02*
X131098326Y-89940755D01*
%TO.N,A8*%
X145772177Y-88978503D02*
X145793275Y-88957405D01*
%TO.N,A6*%
X114020600Y-88036400D02*
X115374820Y-89390620D01*
X136123744Y-89428004D02*
X145958366Y-89428004D01*
%TO.N,A11*%
X145607086Y-88507904D02*
X145585988Y-88529002D01*
%TO.N,A8*%
X145793275Y-88957405D02*
X148044717Y-88957405D01*
%TO.N,A6*%
X115374820Y-89390620D02*
X136086360Y-89390620D01*
X145970671Y-89415699D02*
X148748721Y-89415699D01*
%TO.N,A11*%
X136496122Y-88529002D02*
X136268021Y-88300901D01*
X130975380Y-88300901D02*
X130784775Y-88110296D01*
X148365600Y-87508402D02*
X147366098Y-88507904D01*
X153548402Y-87508402D02*
X148365600Y-87508402D01*
%TO.N,Net-(U101-CE)*%
X145784709Y-87058901D02*
X145213610Y-87630000D01*
%TO.N,A11*%
X147366098Y-88507904D02*
X145607086Y-88507904D01*
X145585988Y-88529002D02*
X136496122Y-88529002D01*
%TO.N,Net-(U101-CE)*%
X145213610Y-87630000D02*
X136868500Y-87630000D01*
X136868500Y-87630000D02*
X136144000Y-86905500D01*
%TO.N,IA12*%
X153485600Y-94286400D02*
X155500400Y-94286400D01*
X155500400Y-94286400D02*
X155956000Y-94742000D01*
%TO.N,A4*%
X115195600Y-94291400D02*
X129747301Y-94291400D01*
%TO.N,~{KRN}*%
X154554000Y-95758000D02*
X152781000Y-95758000D01*
X154660600Y-95651400D02*
X154554000Y-95758000D01*
%TO.N,IA12*%
X129260600Y-93116400D02*
X129296002Y-93080998D01*
X152280198Y-93080998D02*
X153485600Y-94286400D01*
%TO.N,A4*%
X151808431Y-93530499D02*
X153249168Y-94971236D01*
%TO.N,IA12*%
X129296002Y-93080998D02*
X152280198Y-93080998D01*
%TO.N,A4*%
X129747301Y-94291400D02*
X130508202Y-93530499D01*
%TO.N,~{KRN}*%
X151003000Y-93980000D02*
X138684000Y-93980000D01*
%TO.N,A4*%
X114020600Y-93116400D02*
X115195600Y-94291400D01*
X130508202Y-93530499D02*
X151808431Y-93530499D01*
%TO.N,~{KRN}*%
X152781000Y-95758000D02*
X151003000Y-93980000D01*
X138684000Y-93980000D02*
X138176000Y-94488000D01*
%TO.N,A5*%
X114020600Y-90576400D02*
X115195600Y-91751400D01*
X130058701Y-91440000D02*
X150876000Y-91440000D01*
X115195600Y-91751400D02*
X129747301Y-91751400D01*
X129747301Y-91751400D02*
X130058701Y-91440000D01*
X150876000Y-91440000D02*
X151638000Y-92202000D01*
D17*
%TO.N,VCC*%
X157712380Y-86234400D02*
X155980420Y-86234400D01*
X180060600Y-85496400D02*
X179322600Y-86234400D01*
X140692000Y-86234400D02*
X139192000Y-84734400D01*
X155964138Y-86218118D02*
X155069603Y-86218118D01*
X155980420Y-86234400D02*
X155964138Y-86218118D01*
X155069603Y-86218118D02*
X155053321Y-86234400D01*
X158161881Y-86683901D02*
X157712380Y-86234400D01*
X155053321Y-86234400D02*
X140692000Y-86234400D01*
X160769011Y-86234400D02*
X160319511Y-86683900D01*
X179322600Y-86234400D02*
X160769011Y-86234400D01*
D16*
%TO.N,Net-(U101-CE)*%
X155606338Y-87058900D02*
X145849159Y-87058900D01*
D17*
%TO.N,VCC*%
X160319511Y-86683900D02*
X158161881Y-86683901D01*
D16*
%TO.N,Net-(U101-CE)*%
X155956000Y-87376000D02*
X155622619Y-87042619D01*
X155622619Y-87042619D02*
X155606338Y-87058900D01*
%TO.N,A2*%
X115385600Y-99561400D02*
X130041400Y-99561400D01*
X130041400Y-99561400D02*
X131318000Y-100838000D01*
X114020600Y-98196400D02*
X115385600Y-99561400D01*
X131572000Y-104648000D02*
X132080000Y-105156000D01*
X132080000Y-105156000D02*
X159512000Y-105156000D01*
%TO.N,Net-(U101-CE)*%
X162052000Y-84734400D02*
X161102991Y-84734400D01*
X157378400Y-84734400D02*
X156972000Y-84734400D01*
X161102991Y-84734400D02*
X159977991Y-85859400D01*
X159977991Y-85859400D02*
X158503400Y-85859400D01*
X158503400Y-85859400D02*
X157378400Y-84734400D01*
%TO.N,A1*%
X114020600Y-100736400D02*
X115195600Y-101911400D01*
X160334501Y-101691899D02*
X162052000Y-99974400D01*
X115195600Y-101911400D02*
X131514600Y-101911400D01*
X131514600Y-101911400D02*
X131734101Y-101691899D01*
X131734101Y-101691899D02*
X160334501Y-101691899D01*
%TO.N,Net-(RN101-R1)*%
X128270000Y-106934000D02*
X128327400Y-106991400D01*
X140011400Y-106991400D02*
X140208000Y-107188000D01*
X128327400Y-106991400D02*
X140011400Y-106991400D01*
%TO.N,Net-(RN101-R2)*%
X142586391Y-110886400D02*
X141390491Y-109690500D01*
X141390491Y-109690500D02*
X128242478Y-109690500D01*
X128242478Y-109690500D02*
X127766989Y-109215011D01*
X143535400Y-110886400D02*
X142586391Y-110886400D01*
%TO.N,Net-(RN101-R3)*%
X144890400Y-112071400D02*
X128325001Y-112071400D01*
X128325001Y-112071400D02*
X127759601Y-111506000D01*
X146075400Y-110886400D02*
X144890400Y-112071400D01*
%TO.N,Net-(RN101-R4)*%
X146979800Y-112522000D02*
X148615400Y-110886400D01*
X127195738Y-113815754D02*
X127991384Y-114611400D01*
X127991384Y-114611400D02*
X135196910Y-114611400D01*
X135196910Y-114611400D02*
X137286310Y-112522000D01*
X137286310Y-112522000D02*
X146979800Y-112522000D01*
%TO.N,Net-(RN101-R5)*%
X149987000Y-113030000D02*
X151155400Y-114198400D01*
X137414000Y-113030000D02*
X149987000Y-113030000D01*
X127046025Y-115061400D02*
X135382600Y-115061400D01*
X126385160Y-114400535D02*
X127046025Y-115061400D01*
X135382600Y-115061400D02*
X137414000Y-113030000D01*
%TO.N,Net-(RN101-R6)*%
X125984000Y-115316000D02*
X126179400Y-115511400D01*
X152382400Y-115511400D02*
X153695400Y-114198400D01*
X126179400Y-115511400D02*
X152382400Y-115511400D01*
D17*
%TO.N,VCC*%
X136652000Y-84734400D02*
X133985000Y-84734400D01*
X139192000Y-84734400D02*
X136652000Y-84734400D01*
X133985000Y-84734400D02*
X133477000Y-84226400D01*
D16*
%TO.N,A0*%
X129747301Y-104451400D02*
X132057301Y-102141400D01*
X114020600Y-103276400D02*
X115195600Y-104451400D01*
X162425000Y-102141400D02*
X164592000Y-99974400D01*
X115195600Y-104451400D02*
X129747301Y-104451400D01*
X132057301Y-102141400D02*
X162425000Y-102141400D01*
%TO.N,D4*%
X172694600Y-88417400D02*
X172389800Y-88722200D01*
X175293292Y-88417400D02*
X172694600Y-88417400D01*
X176577660Y-89701768D02*
X175293292Y-88417400D01*
%TO.N,D5*%
X170172301Y-87967899D02*
X169875200Y-88265000D01*
X177396596Y-89128750D02*
X176235745Y-87967899D01*
X176235745Y-87967899D02*
X170172301Y-87967899D01*
%TO.N,D6*%
X177150408Y-87518398D02*
X167624602Y-87518398D01*
X177787791Y-88155781D02*
X177150408Y-87518398D01*
X167624602Y-87518398D02*
X167335200Y-87807800D01*
%TO.N,D7*%
X165354000Y-87376000D02*
X165661103Y-87068897D01*
X165661103Y-87068897D02*
X178091574Y-87068897D01*
X178091574Y-87068897D02*
X178356577Y-87333900D01*
%TO.N,~{CHR}*%
X181356000Y-109474000D02*
X181298600Y-109531400D01*
X141301681Y-108966000D02*
X138684000Y-108966000D01*
X141867081Y-109531400D02*
X141301681Y-108966000D01*
X181298600Y-109531400D02*
X141867081Y-109531400D01*
%TD*%
%TA.AperFunction,Conductor*%
%TO.N,VSS*%
G36*
X118090599Y-110555313D02*
G01*
X118078645Y-110543359D01*
X117965748Y-110485835D01*
X117872081Y-110471000D01*
X117809119Y-110471000D01*
X117715452Y-110485835D01*
X117602555Y-110543359D01*
X117590599Y-110555314D01*
X117590599Y-108646685D01*
X117602555Y-108658641D01*
X117715452Y-108716165D01*
X117809119Y-108731000D01*
X117872081Y-108731000D01*
X117965748Y-108716165D01*
X118078645Y-108658641D01*
X118090599Y-108646685D01*
X118090599Y-110555313D01*
G37*
%TD.AperFunction*%
%TA.AperFunction,Conductor*%
G36*
X132696441Y-82976585D02*
G01*
X132742196Y-83029389D01*
X132752140Y-83098547D01*
X132723115Y-83162103D01*
X132700525Y-83182475D01*
X132637859Y-83226353D01*
X132476953Y-83387259D01*
X132346432Y-83573664D01*
X132250261Y-83779902D01*
X132191364Y-83999710D01*
X132171531Y-84226400D01*
X132191364Y-84453089D01*
X132250261Y-84672897D01*
X132346432Y-84879135D01*
X132476953Y-85065540D01*
X132637859Y-85226446D01*
X132824264Y-85356967D01*
X132824265Y-85356967D01*
X132824266Y-85356968D01*
X132839975Y-85364293D01*
X132892414Y-85410465D01*
X132911566Y-85477659D01*
X132891350Y-85544540D01*
X132839977Y-85589056D01*
X132824517Y-85596265D01*
X132751527Y-85647373D01*
X133432600Y-86328446D01*
X133351852Y-86341235D01*
X133238955Y-86398759D01*
X133149359Y-86488355D01*
X133091835Y-86601252D01*
X133079046Y-86682000D01*
X132397973Y-86000927D01*
X132346866Y-86073916D01*
X132341965Y-86084426D01*
X132295791Y-86136864D01*
X132228597Y-86156014D01*
X132161716Y-86135796D01*
X132153588Y-86130000D01*
X132151948Y-86128728D01*
X132111860Y-86111380D01*
X132101370Y-86106241D01*
X132063100Y-86085202D01*
X132043700Y-86080221D01*
X132025293Y-86073919D01*
X132006906Y-86065962D01*
X131963767Y-86059129D01*
X131952333Y-86056761D01*
X131910028Y-86045900D01*
X131889993Y-86045900D01*
X131870595Y-86044373D01*
X131863171Y-86043197D01*
X131850814Y-86041240D01*
X131850813Y-86041240D01*
X131817860Y-86044355D01*
X131807334Y-86045350D01*
X131795665Y-86045900D01*
X130735100Y-86045900D01*
X130668061Y-86026215D01*
X130622306Y-85973411D01*
X130611100Y-85921900D01*
X130611099Y-84601839D01*
X130611099Y-84598528D01*
X130604691Y-84538917D01*
X130554396Y-84404069D01*
X130468146Y-84288854D01*
X130352931Y-84202604D01*
X130218083Y-84152309D01*
X130194338Y-84149756D01*
X130161766Y-84146254D01*
X130161765Y-84146253D01*
X130158473Y-84145900D01*
X130155150Y-84145900D01*
X128366039Y-84145900D01*
X128366020Y-84145900D01*
X128362728Y-84145901D01*
X128359448Y-84146253D01*
X128359440Y-84146254D01*
X128303115Y-84152309D01*
X128168269Y-84202604D01*
X128053054Y-84288854D01*
X127966804Y-84404068D01*
X127916510Y-84538915D01*
X127916509Y-84538917D01*
X127910100Y-84598527D01*
X127910100Y-84601848D01*
X127910100Y-84601849D01*
X127910101Y-85921900D01*
X127890416Y-85988939D01*
X127837613Y-86034694D01*
X127786101Y-86045900D01*
X121913431Y-86045900D01*
X121846392Y-86026215D01*
X121821281Y-86004872D01*
X121763870Y-85941110D01*
X121610730Y-85829848D01*
X121437802Y-85752855D01*
X121252648Y-85713500D01*
X121252646Y-85713500D01*
X121063354Y-85713500D01*
X121063352Y-85713500D01*
X120878197Y-85752855D01*
X120705269Y-85829848D01*
X120552129Y-85941110D01*
X120425466Y-86081783D01*
X120330820Y-86245715D01*
X120272326Y-86425742D01*
X120252540Y-86614000D01*
X120272326Y-86802257D01*
X120330820Y-86982284D01*
X120425466Y-87146216D01*
X120552129Y-87286889D01*
X120705269Y-87398151D01*
X120878197Y-87475144D01*
X121063352Y-87514500D01*
X121063354Y-87514500D01*
X121252648Y-87514500D01*
X121394402Y-87484369D01*
X121437803Y-87475144D01*
X121610730Y-87398151D01*
X121632426Y-87382388D01*
X121717496Y-87320582D01*
X121783302Y-87297102D01*
X121790381Y-87296900D01*
X124164006Y-87296900D01*
X124231045Y-87316585D01*
X124276800Y-87369389D01*
X124286744Y-87438547D01*
X124276388Y-87473305D01*
X124233861Y-87564502D01*
X124174964Y-87784310D01*
X124155131Y-88010999D01*
X124174964Y-88237689D01*
X124233861Y-88457497D01*
X124295050Y-88588715D01*
X124305542Y-88657792D01*
X124277023Y-88721576D01*
X124218546Y-88759816D01*
X124182668Y-88765120D01*
X119264600Y-88765120D01*
X119197561Y-88745435D01*
X119151806Y-88692631D01*
X119140600Y-88641120D01*
X119140600Y-88261000D01*
X118156286Y-88261000D01*
X118168241Y-88249045D01*
X118225765Y-88136148D01*
X118245586Y-88011000D01*
X118225765Y-87885852D01*
X118168241Y-87772955D01*
X118156286Y-87761000D01*
X119140600Y-87761000D01*
X119140600Y-87166481D01*
X119140245Y-87159867D01*
X119134199Y-87103628D01*
X119083952Y-86968910D01*
X118997788Y-86853811D01*
X118882689Y-86767647D01*
X118747971Y-86717400D01*
X118691732Y-86711354D01*
X118685118Y-86711000D01*
X118629568Y-86711000D01*
X118562529Y-86691315D01*
X118516774Y-86638511D01*
X118506247Y-86599961D01*
X118505067Y-86588730D01*
X118487674Y-86423242D01*
X118440459Y-86277930D01*
X118429179Y-86243213D01*
X118334533Y-86079281D01*
X118207870Y-85938608D01*
X118054730Y-85827346D01*
X117881802Y-85750353D01*
X117696648Y-85710998D01*
X117696646Y-85710998D01*
X117507354Y-85710998D01*
X117507352Y-85710998D01*
X117322197Y-85750353D01*
X117149269Y-85827346D01*
X116996129Y-85938609D01*
X116936464Y-86004873D01*
X116876977Y-86041521D01*
X116844315Y-86045900D01*
X115506052Y-86045900D01*
X115439013Y-86026215D01*
X115418371Y-86009581D01*
X115407418Y-85998628D01*
X115373933Y-85937305D01*
X115371099Y-85910947D01*
X115371099Y-84601839D01*
X115371099Y-84598528D01*
X115364691Y-84538917D01*
X115314396Y-84404069D01*
X115228146Y-84288854D01*
X115112931Y-84202604D01*
X114978083Y-84152309D01*
X114954338Y-84149756D01*
X114921766Y-84146254D01*
X114921765Y-84146253D01*
X114918473Y-84145900D01*
X114915150Y-84145900D01*
X113126039Y-84145900D01*
X113126020Y-84145900D01*
X113122728Y-84145901D01*
X113119448Y-84146253D01*
X113119440Y-84146254D01*
X113063115Y-84152309D01*
X112928269Y-84202604D01*
X112813054Y-84288854D01*
X112726804Y-84404068D01*
X112676510Y-84538915D01*
X112676509Y-84538917D01*
X112670100Y-84598527D01*
X112670100Y-84601848D01*
X112670100Y-84601849D01*
X112670100Y-86390960D01*
X112670100Y-86390978D01*
X112670101Y-86394272D01*
X112676509Y-86453883D01*
X112726804Y-86588731D01*
X112813054Y-86703946D01*
X112928269Y-86790196D01*
X113040507Y-86832058D01*
X113059682Y-86839210D01*
X113115616Y-86881081D01*
X113140033Y-86946546D01*
X113125181Y-87014819D01*
X113104031Y-87043073D01*
X112982103Y-87165001D01*
X112846565Y-87358570D01*
X112746697Y-87572736D01*
X112685536Y-87800992D01*
X112664940Y-88036400D01*
X112685536Y-88271807D01*
X112725554Y-88421157D01*
X112746697Y-88500063D01*
X112846565Y-88714230D01*
X112982105Y-88907801D01*
X113149199Y-89074895D01*
X113334760Y-89204826D01*
X113378383Y-89259402D01*
X113385576Y-89328901D01*
X113354054Y-89391255D01*
X113334759Y-89407975D01*
X113149195Y-89537908D01*
X112982105Y-89704998D01*
X112846565Y-89898570D01*
X112746697Y-90112736D01*
X112685536Y-90340992D01*
X112664940Y-90576399D01*
X112685536Y-90811807D01*
X112706898Y-90891531D01*
X112746697Y-91040063D01*
X112846565Y-91254230D01*
X112982105Y-91447801D01*
X113149199Y-91614895D01*
X113334760Y-91744826D01*
X113378383Y-91799402D01*
X113385576Y-91868901D01*
X113354054Y-91931255D01*
X113334758Y-91947975D01*
X113166916Y-92065500D01*
X113149195Y-92077908D01*
X112982105Y-92244998D01*
X112846565Y-92438570D01*
X112746697Y-92652736D01*
X112685536Y-92880992D01*
X112664940Y-93116400D01*
X112685536Y-93351807D01*
X112712456Y-93452272D01*
X112746697Y-93580063D01*
X112846565Y-93794230D01*
X112982105Y-93987801D01*
X113149199Y-94154895D01*
X113334760Y-94284826D01*
X113378383Y-94339402D01*
X113385576Y-94408901D01*
X113354054Y-94471255D01*
X113334758Y-94487975D01*
X113150612Y-94616916D01*
X113149195Y-94617908D01*
X112982105Y-94784998D01*
X112846565Y-94978570D01*
X112746697Y-95192736D01*
X112685536Y-95420992D01*
X112664940Y-95656399D01*
X112685536Y-95891807D01*
X112711253Y-95987783D01*
X112746697Y-96120063D01*
X112846565Y-96334230D01*
X112982105Y-96527801D01*
X113149199Y-96694895D01*
X113334760Y-96824826D01*
X113378383Y-96879402D01*
X113385576Y-96948901D01*
X113354054Y-97011255D01*
X113334759Y-97027975D01*
X113149195Y-97157908D01*
X112982105Y-97324998D01*
X112846565Y-97518570D01*
X112746697Y-97732736D01*
X112685536Y-97960992D01*
X112664940Y-98196400D01*
X112685536Y-98431807D01*
X112712455Y-98532270D01*
X112746697Y-98660063D01*
X112846565Y-98874230D01*
X112982105Y-99067801D01*
X113149199Y-99234895D01*
X113334760Y-99364826D01*
X113378383Y-99419402D01*
X113385576Y-99488901D01*
X113354054Y-99551255D01*
X113334758Y-99567975D01*
X113222244Y-99646759D01*
X113149195Y-99697908D01*
X112982105Y-99864998D01*
X112846565Y-100058570D01*
X112746697Y-100272736D01*
X112685536Y-100500992D01*
X112664940Y-100736400D01*
X112685536Y-100971807D01*
X112710882Y-101066399D01*
X112746697Y-101200063D01*
X112846565Y-101414230D01*
X112982105Y-101607801D01*
X113149199Y-101774895D01*
X113334760Y-101904826D01*
X113378383Y-101959402D01*
X113385576Y-102028901D01*
X113354054Y-102091255D01*
X113334759Y-102107975D01*
X113149195Y-102237908D01*
X112982105Y-102404998D01*
X112846565Y-102598570D01*
X112746697Y-102812736D01*
X112685536Y-103040992D01*
X112664940Y-103276399D01*
X112685536Y-103511807D01*
X112727872Y-103669807D01*
X112746697Y-103740063D01*
X112846565Y-103954230D01*
X112982105Y-104147801D01*
X113149199Y-104314895D01*
X113334760Y-104444826D01*
X113378383Y-104499402D01*
X113385576Y-104568901D01*
X113354054Y-104631255D01*
X113334758Y-104647975D01*
X113150612Y-104776916D01*
X113149195Y-104777908D01*
X112982105Y-104944998D01*
X112846565Y-105138570D01*
X112746697Y-105352736D01*
X112685536Y-105580992D01*
X112664940Y-105816400D01*
X112685536Y-106051807D01*
X112727872Y-106209807D01*
X112746697Y-106280063D01*
X112846565Y-106494230D01*
X112982105Y-106687801D01*
X113149199Y-106854895D01*
X113334760Y-106984826D01*
X113378383Y-107039402D01*
X113385576Y-107108901D01*
X113354054Y-107171255D01*
X113334758Y-107187975D01*
X113190609Y-107288910D01*
X113149195Y-107317908D01*
X112982105Y-107484998D01*
X112846565Y-107678570D01*
X112746697Y-107892736D01*
X112685536Y-108120992D01*
X112664940Y-108356399D01*
X112685536Y-108591807D01*
X112718858Y-108716165D01*
X112746697Y-108820063D01*
X112846565Y-109034230D01*
X112982105Y-109227801D01*
X113149199Y-109394895D01*
X113334760Y-109524826D01*
X113378383Y-109579402D01*
X113385576Y-109648901D01*
X113354054Y-109711255D01*
X113334758Y-109727975D01*
X113155675Y-109853371D01*
X113149195Y-109857908D01*
X112982105Y-110024998D01*
X112846565Y-110218570D01*
X112746697Y-110432736D01*
X112685536Y-110660992D01*
X112664940Y-110896400D01*
X112685536Y-111131807D01*
X112726959Y-111286400D01*
X112746697Y-111360063D01*
X112846565Y-111574230D01*
X112982105Y-111767801D01*
X113149199Y-111934895D01*
X113335196Y-112065132D01*
X113378819Y-112119707D01*
X113386012Y-112189206D01*
X113354490Y-112251560D01*
X113335195Y-112268280D01*
X113149519Y-112398292D01*
X112982490Y-112565321D01*
X112847000Y-112758821D01*
X112747169Y-112972907D01*
X112689964Y-113186399D01*
X112689964Y-113186400D01*
X113586914Y-113186400D01*
X113561107Y-113226556D01*
X113520600Y-113364511D01*
X113520600Y-113508289D01*
X113561107Y-113646244D01*
X113586914Y-113686400D01*
X112689964Y-113686400D01*
X112747169Y-113899892D01*
X112846999Y-114113976D01*
X112982493Y-114307481D01*
X113149518Y-114474506D01*
X113343023Y-114610000D01*
X113557109Y-114709830D01*
X113770600Y-114767034D01*
X113770600Y-113871901D01*
X113878285Y-113921080D01*
X113984837Y-113936400D01*
X114056363Y-113936400D01*
X114162915Y-113921080D01*
X114270600Y-113871901D01*
X114270600Y-114767033D01*
X114484090Y-114709830D01*
X114698176Y-114610000D01*
X114891681Y-114474506D01*
X115058706Y-114307481D01*
X115194200Y-114113976D01*
X115294030Y-113899892D01*
X115351236Y-113686400D01*
X114454286Y-113686400D01*
X114480093Y-113646244D01*
X114520600Y-113508289D01*
X114520600Y-113364511D01*
X114480093Y-113226556D01*
X114454286Y-113186400D01*
X115351236Y-113186400D01*
X115351235Y-113186399D01*
X115294030Y-112972907D01*
X115194199Y-112758821D01*
X115058709Y-112565321D01*
X114891681Y-112398293D01*
X114706004Y-112268280D01*
X114662380Y-112213703D01*
X114655187Y-112144204D01*
X114686709Y-112081850D01*
X114705999Y-112065134D01*
X114892001Y-111934895D01*
X115059095Y-111767801D01*
X115194635Y-111574230D01*
X115294503Y-111360063D01*
X115355663Y-111131808D01*
X115376259Y-110896400D01*
X115355663Y-110660992D01*
X115294503Y-110432737D01*
X115194635Y-110218571D01*
X115059095Y-110024999D01*
X114892001Y-109857905D01*
X114706439Y-109727973D01*
X114662816Y-109673398D01*
X114655622Y-109603900D01*
X114687145Y-109541545D01*
X114706437Y-109524828D01*
X114892001Y-109394895D01*
X115059095Y-109227801D01*
X115194635Y-109034230D01*
X115294503Y-108820063D01*
X115355663Y-108591808D01*
X115376259Y-108356400D01*
X115355663Y-108120992D01*
X115344947Y-108081000D01*
X116540599Y-108081000D01*
X117524914Y-108081000D01*
X117512959Y-108092955D01*
X117455435Y-108205852D01*
X117435614Y-108331000D01*
X117455435Y-108456148D01*
X117512959Y-108569045D01*
X117524914Y-108581000D01*
X116540600Y-108581000D01*
X116540600Y-109175518D01*
X116540954Y-109182132D01*
X116547000Y-109238371D01*
X116597247Y-109373089D01*
X116683411Y-109488188D01*
X116798510Y-109574352D01*
X116933224Y-109624597D01*
X116969575Y-109628506D01*
X117034126Y-109655245D01*
X117073974Y-109712637D01*
X117076468Y-109782462D01*
X117040816Y-109842551D01*
X117027445Y-109853370D01*
X117001782Y-109871339D01*
X116840941Y-110032180D01*
X116710465Y-110218519D01*
X116614333Y-110424673D01*
X116561728Y-110620999D01*
X116561728Y-110621000D01*
X117524914Y-110621000D01*
X117512959Y-110632955D01*
X117455435Y-110745852D01*
X117435614Y-110871000D01*
X117455435Y-110996148D01*
X117512959Y-111109045D01*
X117524914Y-111121000D01*
X116561728Y-111121000D01*
X116614333Y-111317326D01*
X116710465Y-111523480D01*
X116840941Y-111709819D01*
X117001780Y-111870658D01*
X117188119Y-112001134D01*
X117394273Y-112097266D01*
X117590599Y-112149871D01*
X117590600Y-112149871D01*
X117590600Y-111186686D01*
X117602555Y-111198641D01*
X117715452Y-111256165D01*
X117809119Y-111271000D01*
X117872081Y-111271000D01*
X117965748Y-111256165D01*
X118078645Y-111198641D01*
X118090598Y-111186687D01*
X118090599Y-112149871D01*
X118286926Y-112097266D01*
X118493080Y-112001134D01*
X118679419Y-111870658D01*
X118840258Y-111709819D01*
X118970734Y-111523480D01*
X119066866Y-111317326D01*
X119119472Y-111121000D01*
X118156286Y-111121000D01*
X118168241Y-111109045D01*
X118225765Y-110996148D01*
X118245586Y-110871000D01*
X118225765Y-110745852D01*
X118168241Y-110632955D01*
X118156286Y-110621000D01*
X119119472Y-110621000D01*
X119119471Y-110620999D01*
X119066866Y-110424673D01*
X118970734Y-110218519D01*
X118840258Y-110032180D01*
X118679416Y-109871338D01*
X118653756Y-109853371D01*
X118610131Y-109798794D01*
X118602937Y-109729296D01*
X118634460Y-109666941D01*
X118694690Y-109631527D01*
X118711624Y-109628506D01*
X118747975Y-109624597D01*
X118882689Y-109574352D01*
X118997788Y-109488188D01*
X119083952Y-109373089D01*
X119134199Y-109238371D01*
X119140245Y-109182132D01*
X119140600Y-109175518D01*
X119140600Y-108581000D01*
X118156286Y-108581000D01*
X118168241Y-108569045D01*
X118225765Y-108456148D01*
X118245586Y-108331000D01*
X118225765Y-108205852D01*
X118168241Y-108092955D01*
X118156286Y-108081000D01*
X119140600Y-108081000D01*
X119140600Y-107486481D01*
X119140245Y-107479867D01*
X119134199Y-107423628D01*
X119083952Y-107288910D01*
X118997788Y-107173811D01*
X118882689Y-107087647D01*
X118747971Y-107037400D01*
X118691732Y-107031354D01*
X118685118Y-107031000D01*
X118090600Y-107031000D01*
X118090599Y-108015313D01*
X118078645Y-108003359D01*
X117965748Y-107945835D01*
X117872081Y-107931000D01*
X117809119Y-107931000D01*
X117715452Y-107945835D01*
X117602555Y-108003359D01*
X117590600Y-108015314D01*
X117590600Y-107031000D01*
X116996082Y-107031000D01*
X116989467Y-107031354D01*
X116933228Y-107037400D01*
X116798510Y-107087647D01*
X116683411Y-107173811D01*
X116597247Y-107288910D01*
X116547000Y-107423628D01*
X116540954Y-107479867D01*
X116540600Y-107486481D01*
X116540599Y-108081000D01*
X115344947Y-108081000D01*
X115294503Y-107892737D01*
X115194635Y-107678571D01*
X115059095Y-107484999D01*
X114892001Y-107317905D01*
X114706439Y-107187973D01*
X114662817Y-107133398D01*
X114655624Y-107063899D01*
X114687146Y-107001545D01*
X114706437Y-106984828D01*
X114892001Y-106854895D01*
X115059095Y-106687801D01*
X115194635Y-106494230D01*
X115294503Y-106280063D01*
X115355663Y-106051808D01*
X115376259Y-105816400D01*
X115355663Y-105580992D01*
X115294503Y-105352737D01*
X115248137Y-105253305D01*
X115237645Y-105184228D01*
X115266165Y-105120444D01*
X115324641Y-105082204D01*
X115360519Y-105076900D01*
X127920681Y-105076900D01*
X127987720Y-105096585D01*
X128033475Y-105149389D01*
X128043419Y-105218547D01*
X128033063Y-105253305D01*
X127986697Y-105352736D01*
X127925536Y-105580992D01*
X127904940Y-105816400D01*
X127922024Y-106011665D01*
X127908257Y-106080165D01*
X127859642Y-106130348D01*
X127848932Y-106135751D01*
X127817269Y-106149848D01*
X127664129Y-106261110D01*
X127537466Y-106401783D01*
X127442820Y-106565715D01*
X127384326Y-106745742D01*
X127364540Y-106933999D01*
X127384326Y-107122257D01*
X127442820Y-107302284D01*
X127537466Y-107466216D01*
X127664129Y-107606889D01*
X127817265Y-107718149D01*
X127821908Y-107720216D01*
X127913683Y-107761077D01*
X127966920Y-107806328D01*
X127987241Y-107873177D01*
X127983022Y-107906450D01*
X127925536Y-108120992D01*
X127918509Y-108201318D01*
X127893057Y-108266387D01*
X127836466Y-108307366D01*
X127794981Y-108314511D01*
X127672341Y-108314511D01*
X127487186Y-108353866D01*
X127314258Y-108430859D01*
X127161118Y-108542121D01*
X127034455Y-108682794D01*
X126939809Y-108846726D01*
X126881315Y-109026753D01*
X126861529Y-109215010D01*
X126881315Y-109403268D01*
X126939809Y-109583295D01*
X127034455Y-109747227D01*
X127161118Y-109887900D01*
X127314258Y-109999162D01*
X127487186Y-110076155D01*
X127672341Y-110115511D01*
X127672343Y-110115511D01*
X127731536Y-110115511D01*
X127798575Y-110135196D01*
X127819217Y-110151830D01*
X127828007Y-110160620D01*
X127831187Y-110163087D01*
X127840049Y-110170655D01*
X127871896Y-110200562D01*
X127889450Y-110210212D01*
X127905714Y-110220896D01*
X127921539Y-110233171D01*
X127921542Y-110233173D01*
X127936165Y-110239501D01*
X127989873Y-110284189D01*
X128010894Y-110350822D01*
X127999302Y-110405705D01*
X127986697Y-110432736D01*
X127984751Y-110440000D01*
X127972470Y-110485835D01*
X127965032Y-110513593D01*
X127928667Y-110573254D01*
X127865820Y-110603783D01*
X127845257Y-110605500D01*
X127664953Y-110605500D01*
X127479798Y-110644855D01*
X127306870Y-110721848D01*
X127153730Y-110833110D01*
X127027068Y-110973782D01*
X126988519Y-111040552D01*
X126937952Y-111088767D01*
X126869344Y-111101989D01*
X126804480Y-111076021D01*
X126763952Y-111019107D01*
X126757604Y-110967743D01*
X126766068Y-110870999D01*
X126753019Y-110721848D01*
X126746235Y-110644308D01*
X126687339Y-110424504D01*
X126591168Y-110218266D01*
X126578689Y-110200443D01*
X126460646Y-110031859D01*
X126299740Y-109870953D01*
X126113333Y-109740431D01*
X126055325Y-109713382D01*
X126002885Y-109667210D01*
X125983733Y-109600017D01*
X126003948Y-109533135D01*
X126055325Y-109488618D01*
X126113334Y-109461568D01*
X126299739Y-109331047D01*
X126460647Y-109170139D01*
X126591168Y-108983734D01*
X126687339Y-108777496D01*
X126746235Y-108557692D01*
X126766068Y-108331000D01*
X126746235Y-108104308D01*
X126687339Y-107884504D01*
X126591168Y-107678266D01*
X126551914Y-107622204D01*
X126460646Y-107491859D01*
X126299740Y-107330953D01*
X126113335Y-107200432D01*
X125907097Y-107104261D01*
X125687289Y-107045364D01*
X125460600Y-107025531D01*
X125233910Y-107045364D01*
X125014102Y-107104261D01*
X124807864Y-107200432D01*
X124621459Y-107330953D01*
X124460553Y-107491859D01*
X124330032Y-107678264D01*
X124233861Y-107884502D01*
X124174964Y-108104310D01*
X124155131Y-108330999D01*
X124174964Y-108557689D01*
X124233861Y-108777497D01*
X124330032Y-108983735D01*
X124460553Y-109170140D01*
X124621459Y-109331046D01*
X124712645Y-109394894D01*
X124807866Y-109461568D01*
X124865873Y-109488617D01*
X124918313Y-109534789D01*
X124937465Y-109601982D01*
X124917250Y-109668864D01*
X124865876Y-109713380D01*
X124807866Y-109740431D01*
X124621459Y-109870953D01*
X124460553Y-110031859D01*
X124330032Y-110218264D01*
X124233861Y-110424502D01*
X124174964Y-110644310D01*
X124155131Y-110871000D01*
X124174964Y-111097689D01*
X124233861Y-111317497D01*
X124330032Y-111523735D01*
X124460553Y-111710140D01*
X124621459Y-111871046D01*
X124807864Y-112001567D01*
X124807865Y-112001567D01*
X124807866Y-112001568D01*
X125014104Y-112097739D01*
X125233908Y-112156635D01*
X125460600Y-112176468D01*
X125687292Y-112156635D01*
X125907096Y-112097739D01*
X126113334Y-112001568D01*
X126299739Y-111871047D01*
X126460647Y-111710139D01*
X126591168Y-111523734D01*
X126618326Y-111465492D01*
X126664498Y-111413053D01*
X126731691Y-111393901D01*
X126798572Y-111414116D01*
X126843907Y-111467281D01*
X126854029Y-111504935D01*
X126873927Y-111694257D01*
X126932421Y-111874284D01*
X127027067Y-112038216D01*
X127153730Y-112178889D01*
X127306870Y-112290151D01*
X127479798Y-112367144D01*
X127664953Y-112406500D01*
X127664955Y-112406500D01*
X127724148Y-112406500D01*
X127791187Y-112426185D01*
X127811829Y-112442819D01*
X127824197Y-112455187D01*
X127837097Y-112471288D01*
X127888224Y-112519300D01*
X127891021Y-112522011D01*
X127910530Y-112541520D01*
X127913710Y-112543987D01*
X127922572Y-112551555D01*
X127952209Y-112579387D01*
X127954419Y-112581462D01*
X127971971Y-112591111D01*
X127988239Y-112601797D01*
X128004065Y-112614073D01*
X128010753Y-112616967D01*
X128011751Y-112617399D01*
X128065460Y-112662087D01*
X128086483Y-112728719D01*
X128074890Y-112783607D01*
X127986697Y-112972735D01*
X127965075Y-113053431D01*
X127928710Y-113113091D01*
X127865863Y-113143620D01*
X127796487Y-113135325D01*
X127772414Y-113121655D01*
X127678511Y-113053431D01*
X127648468Y-113031603D01*
X127648467Y-113031602D01*
X127648465Y-113031601D01*
X127475540Y-112954609D01*
X127290386Y-112915254D01*
X127290384Y-112915254D01*
X127101092Y-112915254D01*
X127101090Y-112915254D01*
X126915935Y-112954609D01*
X126743007Y-113031602D01*
X126589867Y-113142864D01*
X126463204Y-113283538D01*
X126372486Y-113440666D01*
X126321919Y-113488882D01*
X126290880Y-113499956D01*
X126105357Y-113539390D01*
X125932429Y-113616383D01*
X125779289Y-113727645D01*
X125652626Y-113868318D01*
X125557980Y-114032250D01*
X125499486Y-114212277D01*
X125479700Y-114400535D01*
X125488697Y-114486144D01*
X125476127Y-114554873D01*
X125438263Y-114599421D01*
X125378131Y-114643110D01*
X125251464Y-114783786D01*
X125156820Y-114947715D01*
X125098326Y-115127742D01*
X125078540Y-115315999D01*
X125098326Y-115504257D01*
X125156820Y-115684284D01*
X125251466Y-115848216D01*
X125378129Y-115988889D01*
X125540946Y-116107182D01*
X125583612Y-116162512D01*
X125589591Y-116232125D01*
X125556985Y-116293920D01*
X125496147Y-116328277D01*
X125468061Y-116331500D01*
X111605100Y-116331500D01*
X111538061Y-116311815D01*
X111492306Y-116259011D01*
X111481100Y-116207500D01*
X111481100Y-83080900D01*
X111500785Y-83013861D01*
X111553589Y-82968106D01*
X111605100Y-82956900D01*
X132629402Y-82956900D01*
X132696441Y-82976585D01*
G37*
%TD.AperFunction*%
%TA.AperFunction,Conductor*%
G36*
X187115139Y-82976585D02*
G01*
X187160894Y-83029389D01*
X187172100Y-83080900D01*
X187172100Y-116207500D01*
X187152415Y-116274539D01*
X187099611Y-116320294D01*
X187048100Y-116331500D01*
X152672873Y-116331500D01*
X152605834Y-116311815D01*
X152560079Y-116259011D01*
X152550135Y-116189853D01*
X152579160Y-116126297D01*
X152620377Y-116099808D01*
X152619304Y-116097994D01*
X152632790Y-116090018D01*
X152650029Y-116079822D01*
X152667502Y-116071262D01*
X152686132Y-116063886D01*
X152721464Y-116038214D01*
X152731230Y-116031800D01*
X152768818Y-116009571D01*
X152768817Y-116009571D01*
X152768820Y-116009570D01*
X152782985Y-115995404D01*
X152797773Y-115982773D01*
X152813987Y-115970994D01*
X152841838Y-115937326D01*
X152849679Y-115928709D01*
X153280577Y-115497811D01*
X153341899Y-115464328D01*
X153400351Y-115465719D01*
X153468708Y-115484035D01*
X153695400Y-115503868D01*
X153922092Y-115484035D01*
X154141896Y-115425139D01*
X154348134Y-115328968D01*
X154534539Y-115198447D01*
X154695447Y-115037539D01*
X154825968Y-114851134D01*
X154922139Y-114644896D01*
X154981035Y-114425092D01*
X155000868Y-114198400D01*
X154981035Y-113971708D01*
X154922139Y-113751904D01*
X154825968Y-113545666D01*
X154821575Y-113539391D01*
X154695446Y-113359259D01*
X154534540Y-113198353D01*
X154348135Y-113067832D01*
X154141897Y-112971661D01*
X153922089Y-112912764D01*
X153695400Y-112892931D01*
X153468710Y-112912764D01*
X153248902Y-112971661D01*
X153042664Y-113067832D01*
X152856259Y-113198353D01*
X152695353Y-113359259D01*
X152564833Y-113545663D01*
X152537782Y-113603675D01*
X152491609Y-113656114D01*
X152424415Y-113675265D01*
X152357534Y-113655049D01*
X152313018Y-113603675D01*
X152285968Y-113545666D01*
X152155447Y-113359261D01*
X152155446Y-113359259D01*
X151994540Y-113198353D01*
X151808135Y-113067832D01*
X151601897Y-112971661D01*
X151382089Y-112912764D01*
X151155400Y-112892931D01*
X150928707Y-112912764D01*
X150860350Y-112931080D01*
X150790500Y-112929417D01*
X150740577Y-112898986D01*
X150487802Y-112646211D01*
X150474906Y-112630113D01*
X150423775Y-112582098D01*
X150420978Y-112579387D01*
X150404227Y-112562636D01*
X150401471Y-112559880D01*
X150398290Y-112557412D01*
X150389422Y-112549837D01*
X150357582Y-112519938D01*
X150340024Y-112510285D01*
X150323764Y-112499604D01*
X150307936Y-112487327D01*
X150267851Y-112469980D01*
X150257361Y-112464841D01*
X150219091Y-112443802D01*
X150199691Y-112438821D01*
X150181284Y-112432519D01*
X150162897Y-112424562D01*
X150119758Y-112417729D01*
X150108324Y-112415361D01*
X150066019Y-112404500D01*
X150045984Y-112404500D01*
X150026586Y-112402973D01*
X150019162Y-112401797D01*
X150006805Y-112399840D01*
X150006804Y-112399840D01*
X149973751Y-112402964D01*
X149963325Y-112403950D01*
X149951656Y-112404500D01*
X148916396Y-112404500D01*
X148849357Y-112384815D01*
X148803602Y-112332011D01*
X148793658Y-112262853D01*
X148822683Y-112199297D01*
X148881461Y-112161523D01*
X148884302Y-112160725D01*
X148901199Y-112156197D01*
X149061896Y-112113139D01*
X149268134Y-112016968D01*
X149454539Y-111886447D01*
X149615447Y-111725539D01*
X149745968Y-111539134D01*
X149773018Y-111481124D01*
X149819190Y-111428685D01*
X149886383Y-111409533D01*
X149953265Y-111429748D01*
X149997782Y-111481125D01*
X150024831Y-111539133D01*
X150155353Y-111725540D01*
X150316259Y-111886446D01*
X150502664Y-112016967D01*
X150502665Y-112016967D01*
X150502666Y-112016968D01*
X150708904Y-112113139D01*
X150928708Y-112172035D01*
X151155400Y-112191868D01*
X151382092Y-112172035D01*
X151601896Y-112113139D01*
X151808134Y-112016968D01*
X151994539Y-111886447D01*
X152155447Y-111725539D01*
X152285968Y-111539134D01*
X152313018Y-111481124D01*
X152359190Y-111428685D01*
X152426383Y-111409533D01*
X152493265Y-111429748D01*
X152537782Y-111481125D01*
X152564831Y-111539133D01*
X152695353Y-111725540D01*
X152856259Y-111886446D01*
X153042664Y-112016967D01*
X153042665Y-112016967D01*
X153042666Y-112016968D01*
X153248904Y-112113139D01*
X153468708Y-112172035D01*
X153619836Y-112185256D01*
X153695399Y-112191868D01*
X153695399Y-112191867D01*
X153695400Y-112191868D01*
X153922092Y-112172035D01*
X154141896Y-112113139D01*
X154348134Y-112016968D01*
X154534539Y-111886447D01*
X154695447Y-111725539D01*
X154825968Y-111539134D01*
X154853018Y-111481124D01*
X154899190Y-111428685D01*
X154966383Y-111409533D01*
X155033265Y-111429748D01*
X155077782Y-111481125D01*
X155104831Y-111539133D01*
X155235353Y-111725540D01*
X155396259Y-111886446D01*
X155582664Y-112016967D01*
X155582665Y-112016967D01*
X155582666Y-112016968D01*
X155788904Y-112113139D01*
X156008708Y-112172035D01*
X156235400Y-112191868D01*
X156462092Y-112172035D01*
X156681896Y-112113139D01*
X156888134Y-112016968D01*
X157074539Y-111886447D01*
X157235447Y-111725539D01*
X157365968Y-111539134D01*
X157393018Y-111481124D01*
X157439190Y-111428685D01*
X157506383Y-111409533D01*
X157573265Y-111429748D01*
X157617782Y-111481125D01*
X157644831Y-111539133D01*
X157775353Y-111725540D01*
X157936259Y-111886446D01*
X158122664Y-112016967D01*
X158122665Y-112016967D01*
X158122666Y-112016968D01*
X158328904Y-112113139D01*
X158548708Y-112172035D01*
X158775400Y-112191868D01*
X159002092Y-112172035D01*
X159221896Y-112113139D01*
X159428134Y-112016968D01*
X159614539Y-111886447D01*
X159775447Y-111725539D01*
X159905968Y-111539134D01*
X159933293Y-111480534D01*
X159979465Y-111428095D01*
X160046658Y-111408943D01*
X160113539Y-111429158D01*
X160158057Y-111480533D01*
X160185266Y-111538882D01*
X160315741Y-111725219D01*
X160476580Y-111886058D01*
X160662919Y-112016534D01*
X160869073Y-112112666D01*
X161065399Y-112165271D01*
X161065400Y-112165271D01*
X161065399Y-111202085D01*
X161077355Y-111214041D01*
X161190252Y-111271565D01*
X161283919Y-111286400D01*
X161346881Y-111286400D01*
X161440548Y-111271565D01*
X161553445Y-111214041D01*
X161565400Y-111202086D01*
X161565400Y-112165271D01*
X161761726Y-112112666D01*
X161967880Y-112016534D01*
X162154219Y-111886058D01*
X162315058Y-111725219D01*
X162445534Y-111538880D01*
X162541666Y-111332726D01*
X162594272Y-111136400D01*
X161631086Y-111136400D01*
X161643041Y-111124445D01*
X161700565Y-111011548D01*
X161720386Y-110886400D01*
X161700565Y-110761252D01*
X161643041Y-110648355D01*
X161631086Y-110636400D01*
X162594272Y-110636400D01*
X162594271Y-110636399D01*
X162541666Y-110440073D01*
X162491879Y-110333305D01*
X162481387Y-110264227D01*
X162509907Y-110200443D01*
X162568383Y-110162204D01*
X162604261Y-110156900D01*
X163455281Y-110156900D01*
X163522320Y-110176585D01*
X163568075Y-110229389D01*
X163578019Y-110298547D01*
X163567663Y-110333305D01*
X163521297Y-110432736D01*
X163460136Y-110660992D01*
X163439540Y-110896400D01*
X163460136Y-111131807D01*
X163501559Y-111286400D01*
X163521297Y-111360063D01*
X163621165Y-111574230D01*
X163756705Y-111767801D01*
X163923799Y-111934895D01*
X164109796Y-112065132D01*
X164153419Y-112119707D01*
X164160612Y-112189206D01*
X164129090Y-112251560D01*
X164109795Y-112268280D01*
X163924119Y-112398292D01*
X163757090Y-112565321D01*
X163621600Y-112758821D01*
X163521769Y-112972907D01*
X163464564Y-113186399D01*
X163464564Y-113186400D01*
X164361514Y-113186400D01*
X164335707Y-113226556D01*
X164295200Y-113364511D01*
X164295200Y-113508289D01*
X164335707Y-113646244D01*
X164361514Y-113686400D01*
X163464564Y-113686400D01*
X163521769Y-113899892D01*
X163621599Y-114113976D01*
X163757093Y-114307481D01*
X163924118Y-114474506D01*
X164117623Y-114610000D01*
X164331709Y-114709830D01*
X164545200Y-114767034D01*
X164545200Y-113871901D01*
X164652885Y-113921080D01*
X164759437Y-113936400D01*
X164830963Y-113936400D01*
X164937515Y-113921080D01*
X165045200Y-113871901D01*
X165045200Y-114767033D01*
X165258690Y-114709830D01*
X165472776Y-114610000D01*
X165666281Y-114474506D01*
X165833306Y-114307481D01*
X165968800Y-114113976D01*
X166068630Y-113899892D01*
X166125836Y-113686400D01*
X165228886Y-113686400D01*
X165254693Y-113646244D01*
X165295200Y-113508289D01*
X165295200Y-113364511D01*
X165254693Y-113226556D01*
X165228886Y-113186400D01*
X166125836Y-113186400D01*
X166125835Y-113186399D01*
X166068630Y-112972907D01*
X165968799Y-112758821D01*
X165833309Y-112565321D01*
X165666281Y-112398293D01*
X165480604Y-112268280D01*
X165436980Y-112213703D01*
X165429787Y-112144204D01*
X165461309Y-112081850D01*
X165480599Y-112065134D01*
X165666601Y-111934895D01*
X165833695Y-111767801D01*
X165969235Y-111574230D01*
X166069103Y-111360063D01*
X166130263Y-111131808D01*
X166150859Y-110896400D01*
X166130263Y-110660992D01*
X166069103Y-110432737D01*
X166023847Y-110335685D01*
X166022737Y-110333305D01*
X166012245Y-110264228D01*
X166040765Y-110200444D01*
X166099241Y-110162204D01*
X166135119Y-110156900D01*
X178720681Y-110156900D01*
X178787720Y-110176585D01*
X178833475Y-110229389D01*
X178843419Y-110298547D01*
X178833063Y-110333305D01*
X178786697Y-110432736D01*
X178725536Y-110660992D01*
X178704940Y-110896400D01*
X178725536Y-111131807D01*
X178766959Y-111286400D01*
X178786697Y-111360063D01*
X178886565Y-111574230D01*
X179022105Y-111767801D01*
X179189199Y-111934895D01*
X179374760Y-112064826D01*
X179418383Y-112119402D01*
X179425576Y-112188901D01*
X179394054Y-112251255D01*
X179374758Y-112267975D01*
X179233131Y-112367144D01*
X179189195Y-112397908D01*
X179022105Y-112564998D01*
X178886565Y-112758570D01*
X178786697Y-112972736D01*
X178725536Y-113200992D01*
X178704940Y-113436399D01*
X178725536Y-113671807D01*
X178759760Y-113799531D01*
X178786697Y-113900063D01*
X178886565Y-114114230D01*
X179022105Y-114307801D01*
X179189199Y-114474895D01*
X179382770Y-114610435D01*
X179596937Y-114710303D01*
X179808659Y-114767033D01*
X179825192Y-114771463D01*
X180060599Y-114792059D01*
X180060599Y-114792058D01*
X180060600Y-114792059D01*
X180296008Y-114771463D01*
X180524263Y-114710303D01*
X180738430Y-114610435D01*
X180932001Y-114474895D01*
X181099095Y-114307801D01*
X181234635Y-114114230D01*
X181334503Y-113900063D01*
X181395663Y-113671808D01*
X181416259Y-113436400D01*
X181395663Y-113200992D01*
X181334503Y-112972737D01*
X181234635Y-112758571D01*
X181099095Y-112564999D01*
X180932001Y-112397905D01*
X180746439Y-112267973D01*
X180702816Y-112213398D01*
X180695622Y-112143900D01*
X180727145Y-112081545D01*
X180746437Y-112064828D01*
X180932001Y-111934895D01*
X181099095Y-111767801D01*
X181234635Y-111574230D01*
X181334503Y-111360063D01*
X181395663Y-111131808D01*
X181416259Y-110896400D01*
X181395663Y-110660992D01*
X181359817Y-110527210D01*
X181361480Y-110457360D01*
X181400643Y-110399498D01*
X181453812Y-110373827D01*
X181635803Y-110335144D01*
X181808730Y-110258151D01*
X181860007Y-110220896D01*
X181961870Y-110146889D01*
X181972399Y-110135196D01*
X182088533Y-110006216D01*
X182183179Y-109842284D01*
X182241674Y-109662256D01*
X182261460Y-109474000D01*
X182241674Y-109285744D01*
X182204112Y-109170140D01*
X182183179Y-109105715D01*
X182088533Y-108941783D01*
X181961870Y-108801110D01*
X181808730Y-108689848D01*
X181635802Y-108612855D01*
X181505548Y-108585169D01*
X181444066Y-108551977D01*
X181410290Y-108490814D01*
X181407801Y-108453071D01*
X181408395Y-108446288D01*
X181416259Y-108356400D01*
X181395663Y-108120992D01*
X181334503Y-107892737D01*
X181234635Y-107678571D01*
X181099095Y-107484999D01*
X180932001Y-107317905D01*
X180746439Y-107187973D01*
X180702817Y-107133398D01*
X180695624Y-107063899D01*
X180727146Y-107001545D01*
X180746437Y-106984828D01*
X180932001Y-106854895D01*
X181099095Y-106687801D01*
X181234635Y-106494230D01*
X181334503Y-106280063D01*
X181395663Y-106051808D01*
X181416259Y-105816400D01*
X181404361Y-105680414D01*
X181395663Y-105580992D01*
X181380468Y-105524284D01*
X181334503Y-105352737D01*
X181234635Y-105138571D01*
X181099095Y-104944999D01*
X180932001Y-104777905D01*
X180746439Y-104647973D01*
X180702816Y-104593398D01*
X180695622Y-104523900D01*
X180727145Y-104461545D01*
X180746437Y-104444828D01*
X180932001Y-104314895D01*
X181099095Y-104147801D01*
X181234635Y-103954230D01*
X181334503Y-103740063D01*
X181395663Y-103511808D01*
X181416259Y-103276400D01*
X181395663Y-103040992D01*
X181334503Y-102812737D01*
X181234635Y-102598571D01*
X181099095Y-102404999D01*
X180932001Y-102237905D01*
X180746439Y-102107973D01*
X180702816Y-102053398D01*
X180695622Y-101983900D01*
X180727145Y-101921545D01*
X180746437Y-101904828D01*
X180932001Y-101774895D01*
X181099095Y-101607801D01*
X181234635Y-101414230D01*
X181334503Y-101200063D01*
X181395663Y-100971808D01*
X181416259Y-100736400D01*
X181395663Y-100500992D01*
X181334503Y-100272737D01*
X181234635Y-100058571D01*
X181099095Y-99864999D01*
X180932001Y-99697905D01*
X180746439Y-99567973D01*
X180702816Y-99513398D01*
X180695622Y-99443900D01*
X180727145Y-99381545D01*
X180746437Y-99364828D01*
X180932001Y-99234895D01*
X181099095Y-99067801D01*
X181234635Y-98874230D01*
X181334503Y-98660063D01*
X181395663Y-98431808D01*
X181416259Y-98196400D01*
X181395663Y-97960992D01*
X181334503Y-97732737D01*
X181234635Y-97518571D01*
X181099095Y-97324999D01*
X180932001Y-97157905D01*
X180746439Y-97027973D01*
X180702816Y-96973398D01*
X180695622Y-96903900D01*
X180727145Y-96841545D01*
X180746437Y-96824828D01*
X180932001Y-96694895D01*
X181099095Y-96527801D01*
X181234635Y-96334230D01*
X181334503Y-96120063D01*
X181395663Y-95891808D01*
X181416259Y-95656400D01*
X181395663Y-95420992D01*
X181334503Y-95192737D01*
X181234635Y-94978571D01*
X181099095Y-94784999D01*
X180932001Y-94617905D01*
X180746439Y-94487973D01*
X180702816Y-94433398D01*
X180695622Y-94363900D01*
X180727145Y-94301545D01*
X180746437Y-94284828D01*
X180932001Y-94154895D01*
X181099095Y-93987801D01*
X181234635Y-93794230D01*
X181334503Y-93580063D01*
X181395663Y-93351808D01*
X181416259Y-93116400D01*
X181395663Y-92880992D01*
X181334503Y-92652737D01*
X181234635Y-92438571D01*
X181099095Y-92244999D01*
X180932001Y-92077905D01*
X180746439Y-91947973D01*
X180702816Y-91893398D01*
X180695622Y-91823900D01*
X180727145Y-91761545D01*
X180746437Y-91744828D01*
X180932001Y-91614895D01*
X181099095Y-91447801D01*
X181234635Y-91254230D01*
X181334503Y-91040063D01*
X181395663Y-90811808D01*
X181416259Y-90576400D01*
X181414185Y-90552700D01*
X181395663Y-90340992D01*
X181384947Y-90300999D01*
X181334503Y-90112737D01*
X181234635Y-89898571D01*
X181099095Y-89704999D01*
X180932001Y-89537905D01*
X180746439Y-89407973D01*
X180702816Y-89353398D01*
X180695622Y-89283900D01*
X180727145Y-89221545D01*
X180746437Y-89204828D01*
X180932001Y-89074895D01*
X181099095Y-88907801D01*
X181234635Y-88714230D01*
X181334503Y-88500063D01*
X181395663Y-88271808D01*
X181416259Y-88036400D01*
X181395663Y-87800992D01*
X181334503Y-87572737D01*
X181234635Y-87358571D01*
X181099095Y-87164999D01*
X180977168Y-87043073D01*
X180943684Y-86981750D01*
X180948668Y-86912058D01*
X180990540Y-86856125D01*
X181021515Y-86839210D01*
X181152931Y-86790196D01*
X181268146Y-86703946D01*
X181354396Y-86588731D01*
X181404691Y-86453883D01*
X181411100Y-86394273D01*
X181411099Y-84598528D01*
X181404691Y-84538917D01*
X181354396Y-84404069D01*
X181268146Y-84288854D01*
X181152931Y-84202604D01*
X181018083Y-84152309D01*
X180994338Y-84149756D01*
X180961766Y-84146254D01*
X180961765Y-84146253D01*
X180958473Y-84145900D01*
X180955150Y-84145900D01*
X179166039Y-84145900D01*
X179166020Y-84145900D01*
X179162728Y-84145901D01*
X179159448Y-84146253D01*
X179159440Y-84146254D01*
X179103115Y-84152309D01*
X178968269Y-84202604D01*
X178853054Y-84288854D01*
X178766804Y-84404068D01*
X178716510Y-84538915D01*
X178716509Y-84538917D01*
X178710100Y-84598527D01*
X178710100Y-84601849D01*
X178710100Y-85109900D01*
X178690415Y-85176939D01*
X178637611Y-85222694D01*
X178586100Y-85233900D01*
X176126137Y-85233900D01*
X176059098Y-85214215D01*
X176013343Y-85161411D01*
X176003399Y-85092253D01*
X176006362Y-85077807D01*
X176037635Y-84961091D01*
X176057468Y-84734399D01*
X176037635Y-84507710D01*
X176037635Y-84507708D01*
X175978739Y-84287904D01*
X175882568Y-84081666D01*
X175825183Y-83999710D01*
X175752046Y-83895259D01*
X175591140Y-83734353D01*
X175404735Y-83603832D01*
X175198497Y-83507661D01*
X174978689Y-83448764D01*
X174752000Y-83428931D01*
X174525310Y-83448764D01*
X174305502Y-83507661D01*
X174099264Y-83603832D01*
X173912859Y-83734353D01*
X173751953Y-83895259D01*
X173621433Y-84081663D01*
X173594382Y-84139675D01*
X173548209Y-84192114D01*
X173481015Y-84211265D01*
X173414134Y-84191049D01*
X173369618Y-84139675D01*
X173357065Y-84112755D01*
X173342568Y-84081666D01*
X173342566Y-84081663D01*
X173212046Y-83895259D01*
X173051140Y-83734353D01*
X172864735Y-83603832D01*
X172658497Y-83507661D01*
X172438689Y-83448764D01*
X172212000Y-83428931D01*
X171985310Y-83448764D01*
X171765502Y-83507661D01*
X171559264Y-83603832D01*
X171372859Y-83734353D01*
X171211953Y-83895259D01*
X171081433Y-84081663D01*
X171054382Y-84139675D01*
X171008209Y-84192114D01*
X170941015Y-84211265D01*
X170874134Y-84191049D01*
X170829618Y-84139675D01*
X170817065Y-84112755D01*
X170802568Y-84081666D01*
X170802566Y-84081663D01*
X170672046Y-83895259D01*
X170511140Y-83734353D01*
X170324735Y-83603832D01*
X170118497Y-83507661D01*
X169898689Y-83448764D01*
X169672000Y-83428931D01*
X169445310Y-83448764D01*
X169225502Y-83507661D01*
X169019264Y-83603832D01*
X168832859Y-83734353D01*
X168671953Y-83895259D01*
X168541433Y-84081663D01*
X168514382Y-84139675D01*
X168468209Y-84192114D01*
X168401015Y-84211265D01*
X168334134Y-84191049D01*
X168289618Y-84139675D01*
X168277065Y-84112755D01*
X168262568Y-84081666D01*
X168262566Y-84081663D01*
X168132046Y-83895259D01*
X167971140Y-83734353D01*
X167784735Y-83603832D01*
X167578497Y-83507661D01*
X167358689Y-83448764D01*
X167132000Y-83428931D01*
X166905310Y-83448764D01*
X166685502Y-83507661D01*
X166479264Y-83603832D01*
X166292859Y-83734353D01*
X166131953Y-83895259D01*
X166001433Y-84081663D01*
X165974382Y-84139675D01*
X165928209Y-84192114D01*
X165861015Y-84211265D01*
X165794134Y-84191049D01*
X165749618Y-84139675D01*
X165737065Y-84112755D01*
X165722568Y-84081666D01*
X165722566Y-84081663D01*
X165592046Y-83895259D01*
X165431140Y-83734353D01*
X165244735Y-83603832D01*
X165038497Y-83507661D01*
X164818689Y-83448764D01*
X164591999Y-83428931D01*
X164365310Y-83448764D01*
X164145502Y-83507661D01*
X163939264Y-83603832D01*
X163752859Y-83734353D01*
X163591953Y-83895259D01*
X163461433Y-84081663D01*
X163434382Y-84139675D01*
X163388209Y-84192114D01*
X163321015Y-84211265D01*
X163254134Y-84191049D01*
X163209618Y-84139675D01*
X163197065Y-84112755D01*
X163182568Y-84081666D01*
X163182566Y-84081663D01*
X163052046Y-83895259D01*
X162891140Y-83734353D01*
X162704735Y-83603832D01*
X162498497Y-83507661D01*
X162278689Y-83448764D01*
X162051999Y-83428931D01*
X161825310Y-83448764D01*
X161605502Y-83507661D01*
X161399264Y-83603832D01*
X161212859Y-83734353D01*
X161051953Y-83895259D01*
X160921431Y-84081667D01*
X160916009Y-84093293D01*
X160869833Y-84145729D01*
X160865903Y-84147502D01*
X160866084Y-84147808D01*
X160835360Y-84165978D01*
X160817871Y-84174544D01*
X160815079Y-84175649D01*
X160745500Y-84182017D01*
X160683524Y-84149756D01*
X160657065Y-84112755D01*
X160642568Y-84081666D01*
X160512046Y-83895259D01*
X160351140Y-83734353D01*
X160164735Y-83603832D01*
X159958497Y-83507661D01*
X159738689Y-83448764D01*
X159512000Y-83428931D01*
X159285310Y-83448764D01*
X159065502Y-83507661D01*
X158859264Y-83603832D01*
X158672859Y-83734353D01*
X158511953Y-83895259D01*
X158381433Y-84081663D01*
X158354382Y-84139675D01*
X158308209Y-84192114D01*
X158241015Y-84211265D01*
X158174134Y-84191049D01*
X158129618Y-84139675D01*
X158117065Y-84112755D01*
X158102568Y-84081666D01*
X158102566Y-84081663D01*
X157972046Y-83895259D01*
X157811140Y-83734353D01*
X157624735Y-83603832D01*
X157418497Y-83507661D01*
X157198689Y-83448764D01*
X156971999Y-83428931D01*
X156745310Y-83448764D01*
X156525502Y-83507661D01*
X156319264Y-83603832D01*
X156132859Y-83734353D01*
X155971953Y-83895259D01*
X155841433Y-84081663D01*
X155814382Y-84139675D01*
X155768209Y-84192114D01*
X155701015Y-84211265D01*
X155634134Y-84191049D01*
X155589618Y-84139675D01*
X155577065Y-84112755D01*
X155562568Y-84081666D01*
X155562566Y-84081663D01*
X155432046Y-83895259D01*
X155271140Y-83734353D01*
X155084735Y-83603832D01*
X154878497Y-83507661D01*
X154658689Y-83448764D01*
X154432000Y-83428931D01*
X154205310Y-83448764D01*
X153985502Y-83507661D01*
X153779264Y-83603832D01*
X153592859Y-83734353D01*
X153431953Y-83895259D01*
X153301433Y-84081663D01*
X153274382Y-84139675D01*
X153228209Y-84192114D01*
X153161015Y-84211265D01*
X153094134Y-84191049D01*
X153049618Y-84139675D01*
X153037065Y-84112755D01*
X153022568Y-84081666D01*
X153022566Y-84081663D01*
X152892046Y-83895259D01*
X152731140Y-83734353D01*
X152544735Y-83603832D01*
X152338497Y-83507661D01*
X152118689Y-83448764D01*
X151892000Y-83428931D01*
X151665310Y-83448764D01*
X151445502Y-83507661D01*
X151239264Y-83603832D01*
X151052859Y-83734353D01*
X150891953Y-83895259D01*
X150761433Y-84081663D01*
X150734382Y-84139675D01*
X150688209Y-84192114D01*
X150621015Y-84211265D01*
X150554134Y-84191049D01*
X150509618Y-84139675D01*
X150497065Y-84112755D01*
X150482568Y-84081666D01*
X150482566Y-84081663D01*
X150352046Y-83895259D01*
X150191140Y-83734353D01*
X150004735Y-83603832D01*
X149798497Y-83507661D01*
X149578689Y-83448764D01*
X149352000Y-83428931D01*
X149125310Y-83448764D01*
X148905502Y-83507661D01*
X148699264Y-83603832D01*
X148512859Y-83734353D01*
X148351953Y-83895259D01*
X148221433Y-84081663D01*
X148194382Y-84139675D01*
X148148209Y-84192114D01*
X148081015Y-84211265D01*
X148014134Y-84191049D01*
X147969618Y-84139675D01*
X147957065Y-84112755D01*
X147942568Y-84081666D01*
X147942566Y-84081663D01*
X147812046Y-83895259D01*
X147651140Y-83734353D01*
X147464735Y-83603832D01*
X147258497Y-83507661D01*
X147038689Y-83448764D01*
X146812000Y-83428931D01*
X146585310Y-83448764D01*
X146365502Y-83507661D01*
X146159264Y-83603832D01*
X145972859Y-83734353D01*
X145811953Y-83895259D01*
X145681433Y-84081663D01*
X145654382Y-84139675D01*
X145608209Y-84192114D01*
X145541015Y-84211265D01*
X145474134Y-84191049D01*
X145429618Y-84139675D01*
X145417065Y-84112755D01*
X145402568Y-84081666D01*
X145402566Y-84081663D01*
X145272046Y-83895259D01*
X145111140Y-83734353D01*
X144924735Y-83603832D01*
X144718497Y-83507661D01*
X144498689Y-83448764D01*
X144271999Y-83428931D01*
X144045310Y-83448764D01*
X143825502Y-83507661D01*
X143619264Y-83603832D01*
X143432859Y-83734353D01*
X143271953Y-83895259D01*
X143141430Y-84081667D01*
X143114105Y-84140266D01*
X143067932Y-84192705D01*
X143000739Y-84211856D01*
X142933858Y-84191639D01*
X142889342Y-84140265D01*
X142862134Y-84081919D01*
X142731658Y-83895580D01*
X142570819Y-83734741D01*
X142384480Y-83604265D01*
X142178326Y-83508133D01*
X141982000Y-83455526D01*
X141982000Y-84418714D01*
X141970045Y-84406759D01*
X141857148Y-84349235D01*
X141763481Y-84334400D01*
X141700519Y-84334400D01*
X141606852Y-84349235D01*
X141493955Y-84406759D01*
X141482000Y-84418714D01*
X141482000Y-83455527D01*
X141481999Y-83455526D01*
X141285673Y-83508133D01*
X141079519Y-83604265D01*
X140893180Y-83734741D01*
X140732341Y-83895580D01*
X140601863Y-84081922D01*
X140574656Y-84140266D01*
X140528483Y-84192705D01*
X140461290Y-84211856D01*
X140394409Y-84191639D01*
X140349893Y-84140265D01*
X140322567Y-84081664D01*
X140192046Y-83895259D01*
X140031140Y-83734353D01*
X139844735Y-83603832D01*
X139638497Y-83507661D01*
X139418689Y-83448764D01*
X139192000Y-83428931D01*
X138965310Y-83448764D01*
X138745502Y-83507661D01*
X138539265Y-83603832D01*
X138385535Y-83711475D01*
X138319329Y-83733802D01*
X138314412Y-83733900D01*
X137529588Y-83733900D01*
X137462549Y-83714215D01*
X137458465Y-83711475D01*
X137304734Y-83603832D01*
X137098497Y-83507661D01*
X136878689Y-83448764D01*
X136651999Y-83428931D01*
X136425310Y-83448764D01*
X136205502Y-83507661D01*
X135999265Y-83603832D01*
X135845535Y-83711475D01*
X135779329Y-83733802D01*
X135774412Y-83733900D01*
X134761283Y-83733900D01*
X134694244Y-83714215D01*
X134648901Y-83662305D01*
X134621836Y-83604265D01*
X134607568Y-83573666D01*
X134561352Y-83507661D01*
X134477046Y-83387259D01*
X134316140Y-83226353D01*
X134253475Y-83182475D01*
X134209850Y-83127899D01*
X134202656Y-83058400D01*
X134234179Y-82996045D01*
X134294408Y-82960631D01*
X134324598Y-82956900D01*
X187048100Y-82956900D01*
X187115139Y-82976585D01*
G37*
%TD.AperFunction*%
%TA.AperFunction,Conductor*%
G36*
X157313636Y-87254585D02*
G01*
X157334278Y-87271219D01*
X157444330Y-87381271D01*
X157446523Y-87383520D01*
X157506822Y-87446954D01*
X157555251Y-87480661D01*
X157562743Y-87486310D01*
X157608473Y-87523598D01*
X157628820Y-87534226D01*
X157635438Y-87537683D01*
X157648862Y-87545816D01*
X157673832Y-87563196D01*
X157728046Y-87586461D01*
X157736556Y-87590503D01*
X157788832Y-87617810D01*
X157818081Y-87626178D01*
X157832851Y-87631436D01*
X157860823Y-87643441D01*
X157860826Y-87643441D01*
X157860827Y-87643442D01*
X157918607Y-87655315D01*
X157927750Y-87657558D01*
X157984463Y-87673787D01*
X158014801Y-87676097D01*
X158030329Y-87678274D01*
X158060140Y-87684401D01*
X158119121Y-87684400D01*
X158128538Y-87684757D01*
X158187357Y-87689238D01*
X158217534Y-87685393D01*
X158233203Y-87684400D01*
X160305233Y-87684400D01*
X160308374Y-87684439D01*
X160395874Y-87686657D01*
X160453943Y-87676248D01*
X160463247Y-87674943D01*
X160521949Y-87668974D01*
X160550978Y-87659865D01*
X160566211Y-87656126D01*
X160596164Y-87650758D01*
X160650937Y-87628878D01*
X160659812Y-87625719D01*
X160677186Y-87620267D01*
X160716099Y-87608059D01*
X160742705Y-87593290D01*
X160756873Y-87586562D01*
X160785128Y-87575277D01*
X160834390Y-87542809D01*
X160842421Y-87537943D01*
X160894013Y-87509309D01*
X160917098Y-87489489D01*
X160929625Y-87480044D01*
X160955030Y-87463302D01*
X160996756Y-87421574D01*
X161003642Y-87415194D01*
X161023495Y-87398151D01*
X161048406Y-87376766D01*
X161067031Y-87352703D01*
X161077400Y-87340931D01*
X161147115Y-87271218D01*
X161208439Y-87237733D01*
X161234795Y-87234900D01*
X164325654Y-87234900D01*
X164392693Y-87254585D01*
X164438448Y-87307389D01*
X164448975Y-87371860D01*
X164448540Y-87376000D01*
X164457716Y-87463302D01*
X164468326Y-87564257D01*
X164526820Y-87744284D01*
X164621466Y-87908216D01*
X164748129Y-88048889D01*
X164901269Y-88160151D01*
X165074197Y-88237144D01*
X165259352Y-88276500D01*
X165259354Y-88276500D01*
X165448648Y-88276500D01*
X165577813Y-88249045D01*
X165633803Y-88237144D01*
X165806730Y-88160151D01*
X165833996Y-88140341D01*
X165959870Y-88048889D01*
X165993987Y-88010999D01*
X166086533Y-87908216D01*
X166158070Y-87784310D01*
X166174186Y-87756397D01*
X166224753Y-87708181D01*
X166281573Y-87694397D01*
X166306171Y-87694397D01*
X166373210Y-87714082D01*
X166418965Y-87766886D01*
X166429492Y-87805436D01*
X166429740Y-87807797D01*
X166429740Y-87807800D01*
X166440294Y-87908216D01*
X166449526Y-87996057D01*
X166508020Y-88176084D01*
X166602666Y-88340016D01*
X166729329Y-88480689D01*
X166882469Y-88591951D01*
X167055397Y-88668944D01*
X167240552Y-88708300D01*
X167240554Y-88708300D01*
X167429848Y-88708300D01*
X167553283Y-88682062D01*
X167615003Y-88668944D01*
X167787930Y-88591951D01*
X167879830Y-88525182D01*
X167941070Y-88480689D01*
X167976425Y-88441424D01*
X168067733Y-88340016D01*
X168120255Y-88249045D01*
X168145166Y-88205898D01*
X168195733Y-88157683D01*
X168252553Y-88143898D01*
X168845362Y-88143898D01*
X168912401Y-88163583D01*
X168958156Y-88216387D01*
X168968683Y-88254937D01*
X168969740Y-88264997D01*
X168969740Y-88265000D01*
X168978047Y-88344037D01*
X168989526Y-88453257D01*
X169048020Y-88633284D01*
X169142666Y-88797216D01*
X169269329Y-88937889D01*
X169422469Y-89049151D01*
X169595397Y-89126144D01*
X169780552Y-89165500D01*
X169780554Y-89165500D01*
X169969848Y-89165500D01*
X170093283Y-89139262D01*
X170155003Y-89126144D01*
X170327930Y-89049151D01*
X170418993Y-88982990D01*
X170481070Y-88937889D01*
X170508162Y-88907801D01*
X170607733Y-88797216D01*
X170668115Y-88692631D01*
X170689611Y-88655399D01*
X170740178Y-88607184D01*
X170796998Y-88593399D01*
X171360162Y-88593399D01*
X171427201Y-88613084D01*
X171472956Y-88665888D01*
X171480082Y-88709543D01*
X171482978Y-88709239D01*
X171484340Y-88722199D01*
X171484340Y-88722200D01*
X171486782Y-88745435D01*
X171504126Y-88910457D01*
X171562620Y-89090484D01*
X171657266Y-89254416D01*
X171783929Y-89395089D01*
X171937069Y-89506351D01*
X172109997Y-89583344D01*
X172295152Y-89622700D01*
X172295154Y-89622700D01*
X172484448Y-89622700D01*
X172607883Y-89596462D01*
X172669603Y-89583344D01*
X172842530Y-89506351D01*
X172855354Y-89497034D01*
X172995670Y-89395089D01*
X173122333Y-89254416D01*
X173208656Y-89104900D01*
X173259223Y-89056685D01*
X173316043Y-89042900D01*
X174982840Y-89042900D01*
X175049879Y-89062585D01*
X175070521Y-89079219D01*
X175638698Y-89647396D01*
X175672183Y-89708719D01*
X175674338Y-89722115D01*
X175691986Y-89890025D01*
X175750480Y-90070052D01*
X175845126Y-90233984D01*
X175971789Y-90374657D01*
X176124929Y-90485919D01*
X176297857Y-90562912D01*
X176483012Y-90602268D01*
X176483014Y-90602268D01*
X176672308Y-90602268D01*
X176816951Y-90571523D01*
X176857463Y-90562912D01*
X177030390Y-90485919D01*
X177030390Y-90485918D01*
X177183530Y-90374657D01*
X177310193Y-90233984D01*
X177392601Y-90091250D01*
X177443168Y-90043034D01*
X177479000Y-90034341D01*
X177478494Y-90031960D01*
X177614283Y-90003097D01*
X177676399Y-89989894D01*
X177849326Y-89912901D01*
X178002467Y-89801638D01*
X178129129Y-89660966D01*
X178223775Y-89497034D01*
X178282270Y-89317006D01*
X178302056Y-89128750D01*
X178286735Y-88982985D01*
X178299304Y-88914260D01*
X178337169Y-88869712D01*
X178393662Y-88828669D01*
X178520324Y-88687997D01*
X178597060Y-88555085D01*
X178647626Y-88506871D01*
X178716233Y-88493647D01*
X178781098Y-88519615D01*
X178816828Y-88564680D01*
X178886565Y-88714230D01*
X179022105Y-88907801D01*
X179189199Y-89074895D01*
X179374760Y-89204826D01*
X179418383Y-89259402D01*
X179425576Y-89328901D01*
X179394054Y-89391255D01*
X179374759Y-89407975D01*
X179189195Y-89537908D01*
X179022105Y-89704998D01*
X178886565Y-89898570D01*
X178786697Y-90112736D01*
X178725536Y-90340992D01*
X178704940Y-90576399D01*
X178725536Y-90811807D01*
X178746898Y-90891531D01*
X178786697Y-91040063D01*
X178886565Y-91254230D01*
X179022105Y-91447801D01*
X179189199Y-91614895D01*
X179374760Y-91744826D01*
X179418383Y-91799402D01*
X179425576Y-91868901D01*
X179394054Y-91931255D01*
X179374758Y-91947975D01*
X179206916Y-92065500D01*
X179189195Y-92077908D01*
X179022105Y-92244998D01*
X178886565Y-92438570D01*
X178786697Y-92652736D01*
X178725536Y-92880992D01*
X178704940Y-93116399D01*
X178725536Y-93351807D01*
X178752456Y-93452272D01*
X178786697Y-93580063D01*
X178886565Y-93794230D01*
X179022105Y-93987801D01*
X179189199Y-94154895D01*
X179374760Y-94284826D01*
X179418383Y-94339402D01*
X179425576Y-94408901D01*
X179394054Y-94471255D01*
X179374758Y-94487975D01*
X179190612Y-94616916D01*
X179189195Y-94617908D01*
X179022105Y-94784998D01*
X178886565Y-94978570D01*
X178786697Y-95192736D01*
X178725536Y-95420992D01*
X178704940Y-95656399D01*
X178725536Y-95891807D01*
X178751253Y-95987783D01*
X178786697Y-96120063D01*
X178886565Y-96334230D01*
X179022105Y-96527801D01*
X179189199Y-96694895D01*
X179374760Y-96824826D01*
X179418383Y-96879402D01*
X179425576Y-96948901D01*
X179394054Y-97011255D01*
X179374759Y-97027975D01*
X179189195Y-97157908D01*
X179022105Y-97324998D01*
X178886565Y-97518570D01*
X178786697Y-97732736D01*
X178725536Y-97960992D01*
X178704940Y-98196400D01*
X178725536Y-98431807D01*
X178752455Y-98532270D01*
X178786697Y-98660063D01*
X178886565Y-98874230D01*
X179022105Y-99067801D01*
X179189199Y-99234895D01*
X179374760Y-99364826D01*
X179418383Y-99419402D01*
X179425576Y-99488901D01*
X179394054Y-99551255D01*
X179374758Y-99567975D01*
X179262244Y-99646759D01*
X179189195Y-99697908D01*
X179022105Y-99864998D01*
X178886565Y-100058570D01*
X178786697Y-100272736D01*
X178725536Y-100500992D01*
X178704940Y-100736400D01*
X178725536Y-100971807D01*
X178750882Y-101066399D01*
X178786697Y-101200063D01*
X178886565Y-101414230D01*
X179022105Y-101607801D01*
X179189199Y-101774895D01*
X179374760Y-101904826D01*
X179418383Y-101959402D01*
X179425576Y-102028901D01*
X179394054Y-102091255D01*
X179374759Y-102107975D01*
X179189195Y-102237908D01*
X179022105Y-102404998D01*
X178886565Y-102598570D01*
X178786697Y-102812736D01*
X178725536Y-103040992D01*
X178704940Y-103276399D01*
X178725536Y-103511807D01*
X178767872Y-103669807D01*
X178786697Y-103740063D01*
X178886565Y-103954230D01*
X179022105Y-104147801D01*
X179189199Y-104314895D01*
X179374760Y-104444826D01*
X179418383Y-104499402D01*
X179425576Y-104568901D01*
X179394054Y-104631255D01*
X179374758Y-104647975D01*
X179190612Y-104776916D01*
X179189195Y-104777908D01*
X179022105Y-104944998D01*
X178886565Y-105138570D01*
X178786697Y-105352736D01*
X178725536Y-105580992D01*
X178704940Y-105816400D01*
X178725536Y-106051807D01*
X178767872Y-106209807D01*
X178786697Y-106280063D01*
X178886565Y-106494230D01*
X179022105Y-106687801D01*
X179189199Y-106854895D01*
X179374760Y-106984826D01*
X179418383Y-107039402D01*
X179425576Y-107108901D01*
X179394054Y-107171255D01*
X179374758Y-107187975D01*
X179230609Y-107288910D01*
X179189195Y-107317908D01*
X179022105Y-107484998D01*
X178886565Y-107678570D01*
X178786697Y-107892736D01*
X178725536Y-108120992D01*
X178704940Y-108356400D01*
X178725536Y-108591807D01*
X178767872Y-108749807D01*
X178766209Y-108819657D01*
X178727046Y-108877519D01*
X178662818Y-108905023D01*
X178648097Y-108905900D01*
X166207703Y-108905900D01*
X166140664Y-108886215D01*
X166094909Y-108833411D01*
X166084965Y-108764253D01*
X166087928Y-108749807D01*
X166124623Y-108612856D01*
X166130263Y-108591808D01*
X166150859Y-108356400D01*
X166130263Y-108120992D01*
X166069103Y-107892737D01*
X165969235Y-107678571D01*
X165833695Y-107484999D01*
X165711769Y-107363073D01*
X165678284Y-107301750D01*
X165683268Y-107232058D01*
X165725140Y-107176125D01*
X165756115Y-107159210D01*
X165887531Y-107110196D01*
X166002746Y-107023946D01*
X166088996Y-106908731D01*
X166139291Y-106773883D01*
X166145700Y-106714273D01*
X166145699Y-104918528D01*
X166139291Y-104858917D01*
X166088996Y-104724069D01*
X166002746Y-104608854D01*
X165887531Y-104522604D01*
X165752683Y-104472309D01*
X165693073Y-104465900D01*
X165689750Y-104465900D01*
X163900639Y-104465900D01*
X163900620Y-104465900D01*
X163897328Y-104465901D01*
X163894048Y-104466253D01*
X163894040Y-104466254D01*
X163837715Y-104472309D01*
X163702869Y-104522604D01*
X163587654Y-104608854D01*
X163501404Y-104724068D01*
X163451110Y-104858915D01*
X163451109Y-104858917D01*
X163444700Y-104918527D01*
X163444700Y-104921848D01*
X163444700Y-104921849D01*
X163444700Y-106710960D01*
X163444700Y-106710978D01*
X163444701Y-106714272D01*
X163445053Y-106717552D01*
X163445054Y-106717559D01*
X163451109Y-106773884D01*
X163476256Y-106841306D01*
X163501404Y-106908731D01*
X163587654Y-107023946D01*
X163702869Y-107110196D01*
X163815107Y-107152058D01*
X163834282Y-107159210D01*
X163890216Y-107201081D01*
X163914633Y-107266546D01*
X163899781Y-107334819D01*
X163878631Y-107363073D01*
X163756703Y-107485001D01*
X163621165Y-107678570D01*
X163521297Y-107892736D01*
X163460136Y-108120992D01*
X163439540Y-108356400D01*
X163460136Y-108591807D01*
X163502472Y-108749807D01*
X163500809Y-108819657D01*
X163461646Y-108877519D01*
X163397418Y-108905023D01*
X163382697Y-108905900D01*
X142177534Y-108905900D01*
X142110495Y-108886215D01*
X142089853Y-108869581D01*
X141802483Y-108582211D01*
X141789587Y-108566113D01*
X141738456Y-108518098D01*
X141735659Y-108515387D01*
X141718908Y-108498636D01*
X141716152Y-108495880D01*
X141712971Y-108493412D01*
X141704103Y-108485837D01*
X141672263Y-108455938D01*
X141654705Y-108446285D01*
X141638445Y-108435604D01*
X141622617Y-108423327D01*
X141582532Y-108405980D01*
X141572042Y-108400841D01*
X141533772Y-108379802D01*
X141514372Y-108374821D01*
X141495965Y-108368519D01*
X141477578Y-108360562D01*
X141434439Y-108353729D01*
X141423005Y-108351361D01*
X141380700Y-108340500D01*
X141360665Y-108340500D01*
X141341267Y-108338973D01*
X141333843Y-108337797D01*
X141321486Y-108335840D01*
X141321485Y-108335840D01*
X141288432Y-108338964D01*
X141278006Y-108339950D01*
X141266337Y-108340500D01*
X139387747Y-108340500D01*
X139320708Y-108320815D01*
X139295599Y-108299473D01*
X139289871Y-108293112D01*
X139136730Y-108181849D01*
X139136729Y-108181848D01*
X139136727Y-108181847D01*
X138963802Y-108104855D01*
X138778648Y-108065500D01*
X138778646Y-108065500D01*
X138589354Y-108065500D01*
X138589352Y-108065500D01*
X138404197Y-108104855D01*
X138231269Y-108181848D01*
X138078129Y-108293110D01*
X137951466Y-108433783D01*
X137856820Y-108597715D01*
X137798326Y-108777742D01*
X137798325Y-108777744D01*
X137798326Y-108777744D01*
X137779805Y-108953963D01*
X137753222Y-109018576D01*
X137695924Y-109058561D01*
X137656485Y-109065000D01*
X130614928Y-109065000D01*
X130547889Y-109045315D01*
X130502134Y-108992511D01*
X130492190Y-108923353D01*
X130502546Y-108888596D01*
X130534502Y-108820065D01*
X130534612Y-108819657D01*
X130595663Y-108591808D01*
X130616259Y-108356400D01*
X130595663Y-108120992D01*
X130534503Y-107892737D01*
X130492782Y-107803267D01*
X130488137Y-107793305D01*
X130477645Y-107724228D01*
X130506165Y-107660444D01*
X130564641Y-107622204D01*
X130600519Y-107616900D01*
X139344226Y-107616900D01*
X139411265Y-107636585D01*
X139451613Y-107678901D01*
X139475465Y-107720214D01*
X139602129Y-107860889D01*
X139755269Y-107972151D01*
X139928197Y-108049144D01*
X140113352Y-108088500D01*
X140113354Y-108088500D01*
X140302648Y-108088500D01*
X140426083Y-108062262D01*
X140487803Y-108049144D01*
X140660730Y-107972151D01*
X140751160Y-107906450D01*
X140813870Y-107860889D01*
X140940533Y-107720216D01*
X141035179Y-107556284D01*
X141056112Y-107491859D01*
X141093674Y-107376256D01*
X141113460Y-107188000D01*
X141093674Y-106999744D01*
X141063332Y-106906363D01*
X141035179Y-106819715D01*
X140940533Y-106655783D01*
X140813870Y-106515110D01*
X140660730Y-106403848D01*
X140487802Y-106326855D01*
X140302648Y-106287500D01*
X140302646Y-106287500D01*
X140113354Y-106287500D01*
X140113352Y-106287500D01*
X139928197Y-106326855D01*
X139864583Y-106355179D01*
X139814147Y-106365900D01*
X130673103Y-106365900D01*
X130606064Y-106346215D01*
X130560309Y-106293411D01*
X130550365Y-106224253D01*
X130553328Y-106209807D01*
X130573171Y-106135751D01*
X130595663Y-106051808D01*
X130616259Y-105816400D01*
X130604361Y-105680414D01*
X130595663Y-105580992D01*
X130580468Y-105524284D01*
X130534503Y-105352737D01*
X130434635Y-105138571D01*
X130299095Y-104944999D01*
X130299094Y-104944998D01*
X130292872Y-104936112D01*
X130296253Y-104933744D01*
X130272889Y-104890955D01*
X130277873Y-104821263D01*
X130306370Y-104776919D01*
X130460722Y-104622568D01*
X130522041Y-104589086D01*
X130591732Y-104594070D01*
X130647666Y-104635941D01*
X130671720Y-104697290D01*
X130686326Y-104836257D01*
X130744820Y-105016284D01*
X130839466Y-105180216D01*
X130966129Y-105320889D01*
X131119269Y-105432151D01*
X131292197Y-105509144D01*
X131477352Y-105548500D01*
X131477354Y-105548500D01*
X131535133Y-105548500D01*
X131602172Y-105568185D01*
X131620017Y-105582108D01*
X131643223Y-105603900D01*
X131646020Y-105606611D01*
X131665529Y-105626120D01*
X131668709Y-105628587D01*
X131677571Y-105636155D01*
X131709418Y-105666062D01*
X131726970Y-105675711D01*
X131743238Y-105686397D01*
X131759064Y-105698673D01*
X131799146Y-105716017D01*
X131809633Y-105721155D01*
X131847907Y-105742197D01*
X131856410Y-105744379D01*
X131867308Y-105747178D01*
X131885713Y-105753478D01*
X131904104Y-105761437D01*
X131947250Y-105768270D01*
X131958668Y-105770635D01*
X132000981Y-105781500D01*
X132021017Y-105781500D01*
X132040414Y-105783026D01*
X132060196Y-105786160D01*
X132100720Y-105782328D01*
X132103672Y-105782050D01*
X132115342Y-105781500D01*
X158808253Y-105781500D01*
X158875292Y-105801185D01*
X158900400Y-105822526D01*
X158906129Y-105828888D01*
X159059270Y-105940151D01*
X159059271Y-105940151D01*
X159059272Y-105940152D01*
X159232197Y-106017144D01*
X159417352Y-106056500D01*
X159417354Y-106056500D01*
X159606648Y-106056500D01*
X159730083Y-106030262D01*
X159791803Y-106017144D01*
X159964730Y-105940151D01*
X160117871Y-105828888D01*
X160244533Y-105688216D01*
X160339179Y-105524284D01*
X160397674Y-105344256D01*
X160417460Y-105156000D01*
X160397674Y-104967744D01*
X160339179Y-104787716D01*
X160339179Y-104787715D01*
X160244533Y-104623783D01*
X160117870Y-104483110D01*
X159964730Y-104371848D01*
X159814313Y-104304877D01*
X159761076Y-104259627D01*
X159740755Y-104192778D01*
X159759800Y-104125554D01*
X159773100Y-104108889D01*
X159775442Y-104105543D01*
X159775447Y-104105539D01*
X159905968Y-103919134D01*
X159933018Y-103861124D01*
X159979190Y-103808685D01*
X160046383Y-103789533D01*
X160113265Y-103809748D01*
X160157782Y-103861125D01*
X160184831Y-103919133D01*
X160315353Y-104105540D01*
X160476259Y-104266446D01*
X160662664Y-104396967D01*
X160662665Y-104396967D01*
X160662666Y-104396968D01*
X160868904Y-104493139D01*
X161088708Y-104552035D01*
X161315400Y-104571868D01*
X161542092Y-104552035D01*
X161761896Y-104493139D01*
X161968134Y-104396968D01*
X162154539Y-104266447D01*
X162315447Y-104105539D01*
X162445968Y-103919134D01*
X162542139Y-103712896D01*
X162601035Y-103493092D01*
X162620868Y-103266400D01*
X162601035Y-103039708D01*
X162558359Y-102880438D01*
X162560022Y-102810591D01*
X162599184Y-102752728D01*
X162643538Y-102729271D01*
X162675390Y-102720018D01*
X162692629Y-102709822D01*
X162710102Y-102701262D01*
X162728732Y-102693886D01*
X162764064Y-102668214D01*
X162773830Y-102661800D01*
X162775622Y-102660740D01*
X162811420Y-102639570D01*
X162825585Y-102625404D01*
X162840373Y-102612773D01*
X162856587Y-102600994D01*
X162884438Y-102567326D01*
X162892279Y-102558709D01*
X164177178Y-101273810D01*
X164238499Y-101240327D01*
X164296946Y-101241717D01*
X164365308Y-101260035D01*
X164592000Y-101279868D01*
X164818692Y-101260035D01*
X165038496Y-101201139D01*
X165244734Y-101104968D01*
X165431139Y-100974447D01*
X165592047Y-100813539D01*
X165722568Y-100627134D01*
X165749618Y-100569124D01*
X165795790Y-100516685D01*
X165862983Y-100497533D01*
X165929865Y-100517748D01*
X165974382Y-100569125D01*
X166001431Y-100627133D01*
X166131953Y-100813540D01*
X166292859Y-100974446D01*
X166479264Y-101104967D01*
X166479265Y-101104967D01*
X166479266Y-101104968D01*
X166685504Y-101201139D01*
X166905308Y-101260035D01*
X167132000Y-101279868D01*
X167358692Y-101260035D01*
X167578496Y-101201139D01*
X167784734Y-101104968D01*
X167971139Y-100974447D01*
X168132047Y-100813539D01*
X168262568Y-100627134D01*
X168289618Y-100569124D01*
X168335790Y-100516685D01*
X168402983Y-100497533D01*
X168469865Y-100517748D01*
X168514382Y-100569125D01*
X168541431Y-100627133D01*
X168671953Y-100813540D01*
X168832859Y-100974446D01*
X169019264Y-101104967D01*
X169019265Y-101104967D01*
X169019266Y-101104968D01*
X169225504Y-101201139D01*
X169445308Y-101260035D01*
X169596435Y-101273257D01*
X169671999Y-101279868D01*
X169671999Y-101279867D01*
X169672000Y-101279868D01*
X169898692Y-101260035D01*
X170118496Y-101201139D01*
X170324734Y-101104968D01*
X170511139Y-100974447D01*
X170672047Y-100813539D01*
X170802568Y-100627134D01*
X170829618Y-100569124D01*
X170875790Y-100516685D01*
X170942983Y-100497533D01*
X171009865Y-100517748D01*
X171054382Y-100569125D01*
X171081431Y-100627133D01*
X171211953Y-100813540D01*
X171372859Y-100974446D01*
X171559264Y-101104967D01*
X171559265Y-101104967D01*
X171559266Y-101104968D01*
X171765504Y-101201139D01*
X171985308Y-101260035D01*
X172136436Y-101273256D01*
X172211999Y-101279868D01*
X172211999Y-101279867D01*
X172212000Y-101279868D01*
X172438692Y-101260035D01*
X172658496Y-101201139D01*
X172864734Y-101104968D01*
X173051139Y-100974447D01*
X173212047Y-100813539D01*
X173342568Y-100627134D01*
X173369893Y-100568534D01*
X173416065Y-100516095D01*
X173483258Y-100496943D01*
X173550139Y-100517158D01*
X173594657Y-100568533D01*
X173621866Y-100626882D01*
X173752341Y-100813219D01*
X173913180Y-100974058D01*
X174099519Y-101104534D01*
X174305673Y-101200666D01*
X174501999Y-101253271D01*
X174502000Y-101253271D01*
X174502000Y-100290085D01*
X174513955Y-100302041D01*
X174626852Y-100359565D01*
X174720519Y-100374400D01*
X174783481Y-100374400D01*
X174877148Y-100359565D01*
X174990045Y-100302041D01*
X175002000Y-100290086D01*
X175002000Y-101253271D01*
X175198326Y-101200666D01*
X175404480Y-101104534D01*
X175590819Y-100974058D01*
X175751658Y-100813219D01*
X175882134Y-100626880D01*
X175978266Y-100420726D01*
X176030872Y-100224400D01*
X175067686Y-100224400D01*
X175079641Y-100212445D01*
X175137165Y-100099548D01*
X175156986Y-99974400D01*
X175137165Y-99849252D01*
X175079641Y-99736355D01*
X175067686Y-99724400D01*
X176030872Y-99724400D01*
X176030871Y-99724399D01*
X175978266Y-99528073D01*
X175882134Y-99321919D01*
X175751658Y-99135580D01*
X175590819Y-98974741D01*
X175404480Y-98844265D01*
X175198326Y-98748133D01*
X175002000Y-98695526D01*
X175002000Y-99658714D01*
X174990045Y-99646759D01*
X174877148Y-99589235D01*
X174783481Y-99574400D01*
X174720519Y-99574400D01*
X174626852Y-99589235D01*
X174513955Y-99646759D01*
X174502000Y-99658714D01*
X174502000Y-98695527D01*
X174501999Y-98695526D01*
X174305673Y-98748133D01*
X174099519Y-98844265D01*
X173913180Y-98974741D01*
X173752341Y-99135580D01*
X173621863Y-99321922D01*
X173594656Y-99380266D01*
X173548483Y-99432705D01*
X173481290Y-99451856D01*
X173414409Y-99431639D01*
X173369893Y-99380265D01*
X173365309Y-99370435D01*
X173342568Y-99321666D01*
X173312227Y-99278333D01*
X173212046Y-99135259D01*
X173051140Y-98974353D01*
X172864735Y-98843832D01*
X172658497Y-98747661D01*
X172438689Y-98688764D01*
X172211999Y-98668931D01*
X171985310Y-98688764D01*
X171765502Y-98747661D01*
X171559264Y-98843832D01*
X171372859Y-98974353D01*
X171211953Y-99135259D01*
X171081433Y-99321663D01*
X171076693Y-99331829D01*
X171058691Y-99370435D01*
X171054382Y-99379675D01*
X171008209Y-99432114D01*
X170941015Y-99451265D01*
X170874134Y-99431049D01*
X170829618Y-99379675D01*
X170802568Y-99321666D01*
X170726556Y-99213108D01*
X170672046Y-99135259D01*
X170511140Y-98974353D01*
X170324735Y-98843832D01*
X170118497Y-98747661D01*
X169898689Y-98688764D01*
X169672000Y-98668931D01*
X169445310Y-98688764D01*
X169225502Y-98747661D01*
X169019264Y-98843832D01*
X168832859Y-98974353D01*
X168671953Y-99135259D01*
X168541433Y-99321663D01*
X168536693Y-99331829D01*
X168518691Y-99370435D01*
X168514382Y-99379675D01*
X168468209Y-99432114D01*
X168401015Y-99451265D01*
X168334134Y-99431049D01*
X168289618Y-99379675D01*
X168262568Y-99321666D01*
X168186556Y-99213108D01*
X168132046Y-99135259D01*
X167971140Y-98974353D01*
X167784735Y-98843832D01*
X167578497Y-98747661D01*
X167358689Y-98688764D01*
X167132000Y-98668931D01*
X166905310Y-98688764D01*
X166685502Y-98747661D01*
X166479264Y-98843832D01*
X166292859Y-98974353D01*
X166131953Y-99135259D01*
X166001433Y-99321663D01*
X165996693Y-99331829D01*
X165978691Y-99370435D01*
X165974382Y-99379675D01*
X165928209Y-99432114D01*
X165861015Y-99451265D01*
X165794134Y-99431049D01*
X165749618Y-99379675D01*
X165722568Y-99321666D01*
X165646556Y-99213108D01*
X165592046Y-99135259D01*
X165431140Y-98974353D01*
X165244735Y-98843832D01*
X165038497Y-98747661D01*
X164818689Y-98688764D01*
X164592000Y-98668931D01*
X164365310Y-98688764D01*
X164145502Y-98747661D01*
X163939264Y-98843832D01*
X163752859Y-98974353D01*
X163591953Y-99135259D01*
X163461433Y-99321663D01*
X163456693Y-99331829D01*
X163438691Y-99370435D01*
X163434382Y-99379675D01*
X163388209Y-99432114D01*
X163321015Y-99451265D01*
X163254134Y-99431049D01*
X163209618Y-99379675D01*
X163182568Y-99321666D01*
X163106556Y-99213108D01*
X163052046Y-99135259D01*
X162891140Y-98974353D01*
X162704735Y-98843832D01*
X162498497Y-98747661D01*
X162278689Y-98688764D01*
X162051999Y-98668931D01*
X161825310Y-98688764D01*
X161605502Y-98747661D01*
X161399264Y-98843832D01*
X161212859Y-98974353D01*
X161051953Y-99135259D01*
X160921433Y-99321663D01*
X160916693Y-99331829D01*
X160898691Y-99370435D01*
X160894382Y-99379675D01*
X160848209Y-99432114D01*
X160781015Y-99451265D01*
X160714134Y-99431049D01*
X160669618Y-99379675D01*
X160642568Y-99321666D01*
X160566556Y-99213108D01*
X160512046Y-99135259D01*
X160351140Y-98974353D01*
X160164735Y-98843832D01*
X159958497Y-98747661D01*
X159738689Y-98688764D01*
X159511999Y-98668931D01*
X159285310Y-98688764D01*
X159065502Y-98747661D01*
X158859264Y-98843832D01*
X158672859Y-98974353D01*
X158511953Y-99135259D01*
X158381433Y-99321663D01*
X158376693Y-99331829D01*
X158358691Y-99370435D01*
X158354382Y-99379675D01*
X158308209Y-99432114D01*
X158241015Y-99451265D01*
X158174134Y-99431049D01*
X158129618Y-99379675D01*
X158102568Y-99321666D01*
X158026556Y-99213108D01*
X157972046Y-99135259D01*
X157811140Y-98974353D01*
X157624735Y-98843832D01*
X157418497Y-98747661D01*
X157198689Y-98688764D01*
X156972000Y-98668931D01*
X156745310Y-98688764D01*
X156525502Y-98747661D01*
X156319264Y-98843832D01*
X156132859Y-98974353D01*
X155971953Y-99135259D01*
X155841433Y-99321663D01*
X155836693Y-99331829D01*
X155818691Y-99370435D01*
X155814382Y-99379675D01*
X155768209Y-99432114D01*
X155701015Y-99451265D01*
X155634134Y-99431049D01*
X155589618Y-99379675D01*
X155562568Y-99321666D01*
X155486556Y-99213108D01*
X155432046Y-99135259D01*
X155271140Y-98974353D01*
X155084735Y-98843832D01*
X154878497Y-98747661D01*
X154658689Y-98688764D01*
X154432000Y-98668931D01*
X154205310Y-98688764D01*
X153985502Y-98747661D01*
X153779264Y-98843832D01*
X153592859Y-98974353D01*
X153431953Y-99135259D01*
X153301433Y-99321663D01*
X153296693Y-99331829D01*
X153278691Y-99370435D01*
X153274382Y-99379675D01*
X153228209Y-99432114D01*
X153161015Y-99451265D01*
X153094134Y-99431049D01*
X153049618Y-99379675D01*
X153022568Y-99321666D01*
X152946556Y-99213108D01*
X152892046Y-99135259D01*
X152731140Y-98974353D01*
X152544735Y-98843832D01*
X152338497Y-98747661D01*
X152118689Y-98688764D01*
X151891999Y-98668931D01*
X151665310Y-98688764D01*
X151445502Y-98747661D01*
X151239264Y-98843832D01*
X151052859Y-98974353D01*
X150891953Y-99135259D01*
X150761433Y-99321663D01*
X150756693Y-99331829D01*
X150738691Y-99370435D01*
X150734382Y-99379675D01*
X150688209Y-99432114D01*
X150621015Y-99451265D01*
X150554134Y-99431049D01*
X150509618Y-99379675D01*
X150482568Y-99321666D01*
X150406556Y-99213108D01*
X150352046Y-99135259D01*
X150191140Y-98974353D01*
X150004735Y-98843832D01*
X149798497Y-98747661D01*
X149578689Y-98688764D01*
X149352000Y-98668931D01*
X149125310Y-98688764D01*
X148905502Y-98747661D01*
X148699264Y-98843832D01*
X148512859Y-98974353D01*
X148351953Y-99135259D01*
X148221433Y-99321663D01*
X148216693Y-99331829D01*
X148198691Y-99370435D01*
X148194382Y-99379675D01*
X148148209Y-99432114D01*
X148081015Y-99451265D01*
X148014134Y-99431049D01*
X147969618Y-99379675D01*
X147942568Y-99321666D01*
X147866556Y-99213108D01*
X147812046Y-99135259D01*
X147651140Y-98974353D01*
X147464735Y-98843832D01*
X147258497Y-98747661D01*
X147038689Y-98688764D01*
X146812000Y-98668931D01*
X146585310Y-98688764D01*
X146365502Y-98747661D01*
X146159264Y-98843832D01*
X145972859Y-98974353D01*
X145811953Y-99135259D01*
X145681433Y-99321663D01*
X145676693Y-99331829D01*
X145658691Y-99370435D01*
X145654382Y-99379675D01*
X145608209Y-99432114D01*
X145541015Y-99451265D01*
X145474134Y-99431049D01*
X145429618Y-99379675D01*
X145402568Y-99321666D01*
X145326556Y-99213108D01*
X145272046Y-99135259D01*
X145111140Y-98974353D01*
X144924735Y-98843832D01*
X144718497Y-98747661D01*
X144498689Y-98688764D01*
X144272000Y-98668931D01*
X144045310Y-98688764D01*
X143825502Y-98747661D01*
X143619264Y-98843832D01*
X143432859Y-98974353D01*
X143271953Y-99135259D01*
X143141433Y-99321663D01*
X143136693Y-99331829D01*
X143118691Y-99370435D01*
X143114382Y-99379675D01*
X143068209Y-99432114D01*
X143001015Y-99451265D01*
X142934134Y-99431049D01*
X142889618Y-99379675D01*
X142862568Y-99321666D01*
X142786556Y-99213108D01*
X142732046Y-99135259D01*
X142571140Y-98974353D01*
X142384735Y-98843832D01*
X142178497Y-98747661D01*
X141958689Y-98688764D01*
X141731999Y-98668931D01*
X141505310Y-98688764D01*
X141285502Y-98747661D01*
X141079264Y-98843832D01*
X140892859Y-98974353D01*
X140731953Y-99135259D01*
X140601433Y-99321663D01*
X140596693Y-99331829D01*
X140578691Y-99370435D01*
X140574382Y-99379675D01*
X140528209Y-99432114D01*
X140461015Y-99451265D01*
X140394134Y-99431049D01*
X140349618Y-99379675D01*
X140322568Y-99321666D01*
X140246556Y-99213108D01*
X140192046Y-99135259D01*
X140031140Y-98974353D01*
X139844735Y-98843832D01*
X139638497Y-98747661D01*
X139418689Y-98688764D01*
X139191999Y-98668931D01*
X138965310Y-98688764D01*
X138745502Y-98747661D01*
X138539264Y-98843832D01*
X138352859Y-98974353D01*
X138191953Y-99135259D01*
X138174288Y-99160488D01*
X138119711Y-99204112D01*
X138050212Y-99211304D01*
X137987858Y-99179781D01*
X137952445Y-99119551D01*
X137949424Y-99102617D01*
X137945597Y-99067024D01*
X137895352Y-98932310D01*
X137809188Y-98817211D01*
X137694089Y-98731047D01*
X137559371Y-98680800D01*
X137503132Y-98674754D01*
X137496518Y-98674400D01*
X136902000Y-98674400D01*
X136902000Y-99658714D01*
X136890045Y-99646759D01*
X136777148Y-99589235D01*
X136683481Y-99574400D01*
X136620519Y-99574400D01*
X136526852Y-99589235D01*
X136413955Y-99646759D01*
X136402000Y-99658714D01*
X136402000Y-98674400D01*
X135807482Y-98674400D01*
X135800867Y-98674754D01*
X135744628Y-98680800D01*
X135609910Y-98731047D01*
X135494811Y-98817211D01*
X135408647Y-98932310D01*
X135358400Y-99067028D01*
X135352354Y-99123267D01*
X135352000Y-99129881D01*
X135352000Y-99724400D01*
X136336314Y-99724400D01*
X136324359Y-99736355D01*
X136266835Y-99849252D01*
X136247014Y-99974400D01*
X136266835Y-100099548D01*
X136324359Y-100212445D01*
X136336314Y-100224400D01*
X135352000Y-100224400D01*
X135352000Y-100818918D01*
X135352354Y-100825532D01*
X135358401Y-100881775D01*
X135364850Y-100899065D01*
X135369835Y-100968756D01*
X135336351Y-101030080D01*
X135275028Y-101063565D01*
X135248669Y-101066399D01*
X134797736Y-101066399D01*
X134730697Y-101046714D01*
X134684942Y-100993910D01*
X134674998Y-100924752D01*
X134677961Y-100910305D01*
X134691120Y-100861196D01*
X134737235Y-100689092D01*
X134757068Y-100462400D01*
X134756945Y-100460999D01*
X134740510Y-100273143D01*
X134737235Y-100235708D01*
X134678339Y-100015904D01*
X134582168Y-99809666D01*
X134497928Y-99689357D01*
X134451646Y-99623259D01*
X134290740Y-99462353D01*
X134104335Y-99331832D01*
X134088623Y-99324506D01*
X134036184Y-99278333D01*
X134017032Y-99211140D01*
X134037248Y-99144259D01*
X134088626Y-99099740D01*
X134104084Y-99092531D01*
X134177072Y-99041425D01*
X133496001Y-98360353D01*
X133576748Y-98347565D01*
X133689645Y-98290041D01*
X133779241Y-98200445D01*
X133836765Y-98087548D01*
X133849553Y-98006800D01*
X134530625Y-98687872D01*
X134581734Y-98614880D01*
X134677866Y-98408726D01*
X134736741Y-98189002D01*
X134756566Y-97962400D01*
X134736741Y-97735796D01*
X134722380Y-97682198D01*
X134724043Y-97612348D01*
X134763206Y-97554486D01*
X134827434Y-97526982D01*
X134842155Y-97526105D01*
X134975880Y-97526105D01*
X134996386Y-97528369D01*
X134999289Y-97528277D01*
X134999291Y-97528278D01*
X135066496Y-97526166D01*
X135070392Y-97526105D01*
X135094072Y-97526105D01*
X135097974Y-97526105D01*
X135101937Y-97525604D01*
X135113586Y-97524685D01*
X135157251Y-97523314D01*
X135176483Y-97517725D01*
X135195542Y-97513779D01*
X135215417Y-97511269D01*
X135251716Y-97496897D01*
X135297364Y-97488189D01*
X152303151Y-97488189D01*
X152370190Y-97507874D01*
X152390832Y-97524508D01*
X152532108Y-97665784D01*
X152545008Y-97681886D01*
X152596137Y-97729900D01*
X152598934Y-97732611D01*
X152618443Y-97752120D01*
X152621623Y-97754587D01*
X152630485Y-97762155D01*
X152639903Y-97771000D01*
X152662332Y-97792062D01*
X152679884Y-97801711D01*
X152696152Y-97812397D01*
X152711978Y-97824673D01*
X152752060Y-97842017D01*
X152762547Y-97847155D01*
X152800821Y-97868197D01*
X152809324Y-97870379D01*
X152820222Y-97873178D01*
X152838627Y-97879478D01*
X152857018Y-97887437D01*
X152900164Y-97894270D01*
X152911582Y-97896635D01*
X152953895Y-97907500D01*
X152973930Y-97907500D01*
X152993329Y-97909027D01*
X153013110Y-97912160D01*
X153056588Y-97908050D01*
X153068258Y-97907500D01*
X157792253Y-97907500D01*
X157859292Y-97927185D01*
X157884400Y-97948526D01*
X157890129Y-97954888D01*
X158043270Y-98066151D01*
X158043271Y-98066151D01*
X158043272Y-98066152D01*
X158216197Y-98143144D01*
X158401352Y-98182500D01*
X158401354Y-98182500D01*
X158590648Y-98182500D01*
X158714083Y-98156262D01*
X158775803Y-98143144D01*
X158948730Y-98066151D01*
X159101871Y-97954888D01*
X159228533Y-97814216D01*
X159323179Y-97650284D01*
X159381674Y-97470256D01*
X159401460Y-97282000D01*
X159381674Y-97093744D01*
X159342571Y-96973398D01*
X159323179Y-96913715D01*
X159228533Y-96749783D01*
X159101870Y-96609110D01*
X158948730Y-96497848D01*
X158775802Y-96420855D01*
X158590648Y-96381500D01*
X158590646Y-96381500D01*
X158401354Y-96381500D01*
X158401352Y-96381500D01*
X158216197Y-96420855D01*
X158043272Y-96497847D01*
X157994942Y-96532961D01*
X157890129Y-96609112D01*
X157884401Y-96615472D01*
X157824916Y-96652121D01*
X157792253Y-96656500D01*
X157746829Y-96656500D01*
X157679790Y-96636815D01*
X157634035Y-96584011D01*
X157625684Y-96532870D01*
X157624822Y-96532961D01*
X157621132Y-96497849D01*
X157603674Y-96331744D01*
X157562500Y-96205023D01*
X157545179Y-96151715D01*
X157450533Y-95987783D01*
X157323870Y-95847110D01*
X157170730Y-95735848D01*
X156997802Y-95658855D01*
X156812648Y-95619500D01*
X156812646Y-95619500D01*
X156656146Y-95619500D01*
X156589107Y-95599815D01*
X156543352Y-95547011D01*
X156533408Y-95477853D01*
X156562433Y-95414297D01*
X156563952Y-95412576D01*
X156688533Y-95274216D01*
X156735576Y-95192736D01*
X156783179Y-95110284D01*
X156801560Y-95053714D01*
X156841674Y-94930256D01*
X156861460Y-94742000D01*
X156841674Y-94553744D01*
X156802571Y-94433398D01*
X156783179Y-94373715D01*
X156688533Y-94209783D01*
X156561870Y-94069110D01*
X156408730Y-93957848D01*
X156235802Y-93880855D01*
X156109318Y-93853970D01*
X156047836Y-93820778D01*
X156014060Y-93759614D01*
X156011099Y-93732688D01*
X156011099Y-92213528D01*
X156004691Y-92153917D01*
X155954396Y-92019069D01*
X155868146Y-91903854D01*
X155752931Y-91817604D01*
X155618083Y-91767309D01*
X155618083Y-91767308D01*
X155561766Y-91761254D01*
X155561765Y-91761253D01*
X155558473Y-91760900D01*
X155555150Y-91760900D01*
X153766039Y-91760900D01*
X153766020Y-91760900D01*
X153762728Y-91760901D01*
X153759448Y-91761253D01*
X153759440Y-91761254D01*
X153703115Y-91767309D01*
X153568269Y-91817604D01*
X153453054Y-91903854D01*
X153366804Y-92019068D01*
X153316509Y-92153916D01*
X153312155Y-92194417D01*
X153310100Y-92213527D01*
X153310100Y-92216849D01*
X153310100Y-92926947D01*
X153290415Y-92993986D01*
X153237611Y-93039741D01*
X153168453Y-93049685D01*
X153104897Y-93020660D01*
X153098419Y-93014628D01*
X152781000Y-92697209D01*
X152768104Y-92681111D01*
X152716973Y-92633096D01*
X152714176Y-92630385D01*
X152697425Y-92613634D01*
X152694669Y-92610878D01*
X152691488Y-92608410D01*
X152682620Y-92600835D01*
X152650780Y-92570936D01*
X152633222Y-92561283D01*
X152616962Y-92550602D01*
X152601135Y-92538325D01*
X152594592Y-92535494D01*
X152540884Y-92490803D01*
X152519865Y-92424170D01*
X152522959Y-92403286D01*
X152522311Y-92403218D01*
X152523672Y-92390259D01*
X152523674Y-92390256D01*
X152543460Y-92202000D01*
X152523674Y-92013744D01*
X152484571Y-91893398D01*
X152465179Y-91833715D01*
X152370533Y-91669783D01*
X152243870Y-91529110D01*
X152090730Y-91417848D01*
X151917802Y-91340855D01*
X151732648Y-91301500D01*
X151732646Y-91301500D01*
X151673453Y-91301500D01*
X151606414Y-91281815D01*
X151585772Y-91265181D01*
X151400122Y-91079531D01*
X151366637Y-91018208D01*
X151371621Y-90948516D01*
X151413493Y-90892583D01*
X151414832Y-90891594D01*
X151481871Y-90842888D01*
X151608533Y-90702216D01*
X151703179Y-90538284D01*
X151761674Y-90358256D01*
X151781460Y-90170000D01*
X151761674Y-89981744D01*
X151703179Y-89801716D01*
X151703179Y-89801715D01*
X151608533Y-89637783D01*
X151481870Y-89497110D01*
X151328730Y-89385848D01*
X151155802Y-89308855D01*
X150970648Y-89269500D01*
X150970646Y-89269500D01*
X150795279Y-89269500D01*
X150752012Y-89260540D01*
X150703959Y-89252929D01*
X150692523Y-89250561D01*
X150650219Y-89239700D01*
X150630184Y-89239700D01*
X150610786Y-89238173D01*
X150603362Y-89236997D01*
X150591005Y-89235040D01*
X150591004Y-89235040D01*
X150557951Y-89238164D01*
X150547525Y-89239150D01*
X150535856Y-89239700D01*
X149967739Y-89239700D01*
X149900700Y-89220015D01*
X149854945Y-89167211D01*
X149844419Y-89128665D01*
X149833839Y-89027999D01*
X149775344Y-88847971D01*
X149775344Y-88847970D01*
X149680698Y-88684038D01*
X149646874Y-88646473D01*
X149616644Y-88583482D01*
X149621092Y-88525185D01*
X149654894Y-88421158D01*
X149673414Y-88244938D01*
X149699998Y-88180326D01*
X149757296Y-88140341D01*
X149796735Y-88133902D01*
X152968265Y-88133902D01*
X153035304Y-88153587D01*
X153081059Y-88206391D01*
X153086196Y-88219584D01*
X153096820Y-88252284D01*
X153191466Y-88416216D01*
X153318129Y-88556889D01*
X153471269Y-88668151D01*
X153644197Y-88745144D01*
X153829352Y-88784500D01*
X153829354Y-88784500D01*
X154018648Y-88784500D01*
X154162543Y-88753914D01*
X154203803Y-88745144D01*
X154376730Y-88668151D01*
X154481611Y-88591951D01*
X154529870Y-88556889D01*
X154531494Y-88555086D01*
X154656533Y-88416216D01*
X154751179Y-88252284D01*
X154809674Y-88072256D01*
X154829460Y-87884000D01*
X154822876Y-87821359D01*
X154835445Y-87752632D01*
X154883177Y-87701608D01*
X154946197Y-87684400D01*
X155022656Y-87684400D01*
X155089695Y-87704085D01*
X155130042Y-87746399D01*
X155138472Y-87761000D01*
X155223466Y-87908216D01*
X155350129Y-88048889D01*
X155503269Y-88160151D01*
X155676197Y-88237144D01*
X155861352Y-88276500D01*
X155861354Y-88276500D01*
X156050648Y-88276500D01*
X156179813Y-88249045D01*
X156235803Y-88237144D01*
X156408730Y-88160151D01*
X156435996Y-88140341D01*
X156561870Y-88048889D01*
X156595987Y-88010999D01*
X156688533Y-87908216D01*
X156783179Y-87744284D01*
X156841674Y-87564256D01*
X156861460Y-87376000D01*
X156861024Y-87371860D01*
X156873595Y-87303130D01*
X156921328Y-87252107D01*
X156984346Y-87234900D01*
X157246597Y-87234900D01*
X157313636Y-87254585D01*
G37*
%TD.AperFunction*%
%TA.AperFunction,Conductor*%
G36*
X127987720Y-102556585D02*
G01*
X128033475Y-102609389D01*
X128043419Y-102678547D01*
X128033063Y-102713305D01*
X127986697Y-102812736D01*
X127925536Y-103040992D01*
X127904940Y-103276399D01*
X127925536Y-103511807D01*
X127967872Y-103669807D01*
X127966209Y-103739657D01*
X127927046Y-103797519D01*
X127862818Y-103825023D01*
X127848097Y-103825900D01*
X115506052Y-103825900D01*
X115439013Y-103806215D01*
X115418371Y-103789581D01*
X115360837Y-103732047D01*
X115327352Y-103670724D01*
X115328743Y-103612272D01*
X115330463Y-103605853D01*
X115355663Y-103511808D01*
X115376259Y-103276400D01*
X115355663Y-103040992D01*
X115294503Y-102812737D01*
X115257709Y-102733833D01*
X115248137Y-102713305D01*
X115237645Y-102644228D01*
X115266165Y-102580444D01*
X115324641Y-102542204D01*
X115360519Y-102536900D01*
X127920681Y-102536900D01*
X127987720Y-102556585D01*
G37*
%TD.AperFunction*%
%TA.AperFunction,Conductor*%
G36*
X116540612Y-100206585D02*
G01*
X116586367Y-100259389D01*
X116596311Y-100328547D01*
X116593348Y-100342994D01*
X116561728Y-100460999D01*
X116561728Y-100461000D01*
X117524914Y-100461000D01*
X117512959Y-100472955D01*
X117455435Y-100585852D01*
X117435614Y-100711000D01*
X117455435Y-100836148D01*
X117512959Y-100949045D01*
X117524914Y-100961000D01*
X116561728Y-100961000D01*
X116606960Y-101129806D01*
X116605297Y-101199656D01*
X116566135Y-101257519D01*
X116501906Y-101285023D01*
X116487185Y-101285900D01*
X115506052Y-101285900D01*
X115439013Y-101266215D01*
X115418371Y-101249581D01*
X115360837Y-101192047D01*
X115327352Y-101130724D01*
X115328743Y-101072272D01*
X115330317Y-101066399D01*
X115355663Y-100971808D01*
X115376259Y-100736400D01*
X115355663Y-100500992D01*
X115313327Y-100342993D01*
X115314991Y-100273143D01*
X115354154Y-100215281D01*
X115418382Y-100187777D01*
X115433103Y-100186900D01*
X116473573Y-100186900D01*
X116540612Y-100206585D01*
G37*
%TD.AperFunction*%
%TA.AperFunction,Conductor*%
G36*
X118033639Y-100206585D02*
G01*
X118079394Y-100259389D01*
X118090600Y-100310900D01*
X118090600Y-100395314D01*
X118078645Y-100383359D01*
X117965748Y-100325835D01*
X117872081Y-100311000D01*
X117809119Y-100311000D01*
X117715452Y-100325835D01*
X117602555Y-100383359D01*
X117590600Y-100395314D01*
X117590600Y-100310900D01*
X117610285Y-100243861D01*
X117663089Y-100198106D01*
X117714600Y-100186900D01*
X117966600Y-100186900D01*
X118033639Y-100206585D01*
G37*
%TD.AperFunction*%
%TA.AperFunction,Conductor*%
G36*
X124160094Y-100206585D02*
G01*
X124205849Y-100259389D01*
X124215793Y-100328547D01*
X124212830Y-100342994D01*
X124174964Y-100484310D01*
X124155131Y-100710999D01*
X124174964Y-100937689D01*
X124184106Y-100971807D01*
X124221402Y-101111000D01*
X124226442Y-101129806D01*
X124224779Y-101199656D01*
X124185617Y-101257519D01*
X124121388Y-101285023D01*
X124106667Y-101285900D01*
X119194015Y-101285900D01*
X119126976Y-101266215D01*
X119081221Y-101213411D01*
X119071277Y-101144253D01*
X119074240Y-101129806D01*
X119119472Y-100961000D01*
X118156286Y-100961000D01*
X118168241Y-100949045D01*
X118225765Y-100836148D01*
X118245586Y-100711000D01*
X118225765Y-100585852D01*
X118168241Y-100472955D01*
X118156286Y-100461000D01*
X119119472Y-100461000D01*
X119119471Y-100460999D01*
X119087852Y-100342994D01*
X119089515Y-100273144D01*
X119128677Y-100215281D01*
X119192906Y-100187777D01*
X119207627Y-100186900D01*
X124093055Y-100186900D01*
X124160094Y-100206585D01*
G37*
%TD.AperFunction*%
%TA.AperFunction,Conductor*%
G36*
X116483639Y-97476585D02*
G01*
X116529394Y-97529389D01*
X116540600Y-97580900D01*
X116540600Y-97921000D01*
X117524914Y-97921000D01*
X117512959Y-97932955D01*
X117455435Y-98045852D01*
X117435614Y-98171000D01*
X117455435Y-98296148D01*
X117512959Y-98409045D01*
X117524914Y-98421000D01*
X116540600Y-98421000D01*
X116540600Y-98811900D01*
X116520915Y-98878939D01*
X116468111Y-98924694D01*
X116416600Y-98935900D01*
X115696053Y-98935900D01*
X115629014Y-98916215D01*
X115608372Y-98899581D01*
X115360837Y-98652046D01*
X115327352Y-98590723D01*
X115328743Y-98532272D01*
X115355663Y-98431808D01*
X115357683Y-98408726D01*
X115376259Y-98196399D01*
X115355663Y-97960992D01*
X115348151Y-97932955D01*
X115294503Y-97732737D01*
X115248137Y-97633305D01*
X115237645Y-97564228D01*
X115266165Y-97500444D01*
X115324641Y-97462204D01*
X115360519Y-97456900D01*
X116416600Y-97456900D01*
X116483639Y-97476585D01*
G37*
%TD.AperFunction*%
%TA.AperFunction,Conductor*%
G36*
X124231045Y-97476585D02*
G01*
X124276800Y-97529389D01*
X124286744Y-97598547D01*
X124276388Y-97633305D01*
X124233861Y-97724502D01*
X124174964Y-97944310D01*
X124155131Y-98171000D01*
X124174964Y-98397689D01*
X124233861Y-98617497D01*
X124270247Y-98695526D01*
X124294778Y-98748133D01*
X124300077Y-98759495D01*
X124310569Y-98828572D01*
X124282050Y-98892356D01*
X124223573Y-98930596D01*
X124187695Y-98935900D01*
X119264600Y-98935900D01*
X119197561Y-98916215D01*
X119151806Y-98863411D01*
X119140600Y-98811900D01*
X119140600Y-98421000D01*
X118156286Y-98421000D01*
X118168241Y-98409045D01*
X118225765Y-98296148D01*
X118245586Y-98171000D01*
X118225765Y-98045852D01*
X118168241Y-97932955D01*
X118156286Y-97921000D01*
X119140600Y-97921000D01*
X119140600Y-97580900D01*
X119160285Y-97513861D01*
X119213089Y-97468106D01*
X119264600Y-97456900D01*
X124164006Y-97456900D01*
X124231045Y-97476585D01*
G37*
%TD.AperFunction*%
%TA.AperFunction,Conductor*%
G36*
X132145020Y-97482585D02*
G01*
X132190775Y-97535389D01*
X132200719Y-97604547D01*
X132197756Y-97618994D01*
X132166458Y-97735797D01*
X132146633Y-97962400D01*
X132166458Y-98189002D01*
X132225333Y-98408726D01*
X132321466Y-98614884D01*
X132372572Y-98687871D01*
X132372573Y-98687872D01*
X133053645Y-98006799D01*
X133066435Y-98087548D01*
X133123959Y-98200445D01*
X133213555Y-98290041D01*
X133326452Y-98347565D01*
X133407199Y-98360353D01*
X132726126Y-99041425D01*
X132726126Y-99041426D01*
X132799115Y-99092533D01*
X132814575Y-99099742D01*
X132867014Y-99145914D01*
X132886166Y-99213108D01*
X132865950Y-99279989D01*
X132814578Y-99324504D01*
X132798868Y-99331829D01*
X132612459Y-99462353D01*
X132451553Y-99623259D01*
X132321032Y-99809664D01*
X132224861Y-100015902D01*
X132184130Y-100167913D01*
X132147765Y-100227573D01*
X132084918Y-100258102D01*
X132015542Y-100249807D01*
X131972206Y-100218792D01*
X131923870Y-100165111D01*
X131770730Y-100053848D01*
X131597802Y-99976855D01*
X131412648Y-99937500D01*
X131412646Y-99937500D01*
X131353452Y-99937500D01*
X131286413Y-99917815D01*
X131265771Y-99901181D01*
X130915845Y-99551255D01*
X130542202Y-99177611D01*
X130529306Y-99161513D01*
X130478175Y-99113498D01*
X130475378Y-99110787D01*
X130458627Y-99094036D01*
X130455871Y-99091280D01*
X130452690Y-99088812D01*
X130443825Y-99081241D01*
X130429129Y-99067440D01*
X130393736Y-99007202D01*
X130396528Y-98937388D01*
X130412437Y-98905930D01*
X130434635Y-98874230D01*
X130534503Y-98660063D01*
X130595663Y-98431808D01*
X130616259Y-98196400D01*
X130595663Y-97960992D01*
X130568743Y-97860525D01*
X130570406Y-97790677D01*
X130600834Y-97740754D01*
X130842372Y-97499218D01*
X130903697Y-97465734D01*
X130930054Y-97462900D01*
X132077981Y-97462900D01*
X132145020Y-97482585D01*
G37*
%TD.AperFunction*%
%TA.AperFunction,Conductor*%
G36*
X118090600Y-98811900D02*
G01*
X118070915Y-98878939D01*
X118018111Y-98924694D01*
X117966600Y-98935900D01*
X117714600Y-98935900D01*
X117647561Y-98916215D01*
X117601806Y-98863411D01*
X117590600Y-98811900D01*
X117590600Y-98486686D01*
X117602555Y-98498641D01*
X117715452Y-98556165D01*
X117809119Y-98571000D01*
X117872081Y-98571000D01*
X117965748Y-98556165D01*
X118078645Y-98498641D01*
X118090600Y-98486685D01*
X118090600Y-98811900D01*
G37*
%TD.AperFunction*%
%TA.AperFunction,Conductor*%
G36*
X127987720Y-94936585D02*
G01*
X128033475Y-94989389D01*
X128043419Y-95058547D01*
X128033063Y-95093305D01*
X127986697Y-95192736D01*
X127925536Y-95420992D01*
X127904940Y-95656400D01*
X127925536Y-95891807D01*
X127967872Y-96049807D01*
X127966209Y-96119657D01*
X127927046Y-96177519D01*
X127862818Y-96205023D01*
X127848097Y-96205900D01*
X115506052Y-96205900D01*
X115439013Y-96186215D01*
X115418371Y-96169581D01*
X115360837Y-96112047D01*
X115327352Y-96050724D01*
X115328743Y-95992272D01*
X115329946Y-95987783D01*
X115355663Y-95891808D01*
X115376259Y-95656400D01*
X115366688Y-95547011D01*
X115355663Y-95420992D01*
X115338870Y-95358319D01*
X115294503Y-95192737D01*
X115248137Y-95093305D01*
X115237645Y-95024228D01*
X115266165Y-94960444D01*
X115324641Y-94922204D01*
X115360519Y-94916900D01*
X127920681Y-94916900D01*
X127987720Y-94936585D01*
G37*
%TD.AperFunction*%
%TA.AperFunction,Conductor*%
G36*
X137234758Y-94175684D02*
G01*
X137280513Y-94228488D01*
X137291040Y-94292961D01*
X137290327Y-94299739D01*
X137290326Y-94299744D01*
X137276279Y-94433398D01*
X137270540Y-94488000D01*
X137290326Y-94676257D01*
X137348820Y-94856284D01*
X137443466Y-95020216D01*
X137570129Y-95160889D01*
X137723269Y-95272151D01*
X137896197Y-95349144D01*
X138081352Y-95388500D01*
X138081354Y-95388500D01*
X138270648Y-95388500D01*
X138412633Y-95358320D01*
X138455803Y-95349144D01*
X138628730Y-95272151D01*
X138735762Y-95194388D01*
X138781870Y-95160889D01*
X138874020Y-95058547D01*
X138908533Y-95020216D01*
X139003179Y-94856284D01*
X139056824Y-94691181D01*
X139096261Y-94633507D01*
X139160620Y-94606308D01*
X139174755Y-94605500D01*
X150692548Y-94605500D01*
X150759587Y-94625185D01*
X150780229Y-94641819D01*
X151714417Y-95576007D01*
X151747902Y-95637330D01*
X151742918Y-95707022D01*
X151701046Y-95762955D01*
X151635582Y-95787372D01*
X151626736Y-95787688D01*
X135600030Y-95787688D01*
X135532991Y-95768003D01*
X135487236Y-95715199D01*
X135476710Y-95676652D01*
X135462174Y-95538348D01*
X135431832Y-95444967D01*
X135403679Y-95358319D01*
X135309033Y-95194387D01*
X135182370Y-95053714D01*
X135029230Y-94942452D01*
X134856302Y-94865459D01*
X134671148Y-94826104D01*
X134671146Y-94826104D01*
X134481854Y-94826104D01*
X134481852Y-94826104D01*
X134296697Y-94865459D01*
X134123772Y-94942451D01*
X134034629Y-95007218D01*
X133968823Y-95030698D01*
X133961743Y-95030900D01*
X130535826Y-95030900D01*
X130468787Y-95011215D01*
X130434251Y-94978023D01*
X130409343Y-94942451D01*
X130299095Y-94784999D01*
X130299094Y-94784998D01*
X130292872Y-94776112D01*
X130296253Y-94773744D01*
X130272889Y-94730955D01*
X130277873Y-94661263D01*
X130306374Y-94616916D01*
X130514390Y-94408901D01*
X130730972Y-94192318D01*
X130792296Y-94158833D01*
X130818654Y-94155999D01*
X137167719Y-94155999D01*
X137234758Y-94175684D01*
G37*
%TD.AperFunction*%
%TA.AperFunction,Conductor*%
G36*
X127987720Y-92396585D02*
G01*
X128033475Y-92449389D01*
X128043419Y-92518547D01*
X128033063Y-92553305D01*
X127986697Y-92652736D01*
X127925536Y-92880992D01*
X127904940Y-93116399D01*
X127925536Y-93351807D01*
X127967872Y-93509807D01*
X127966209Y-93579657D01*
X127927046Y-93637519D01*
X127862818Y-93665023D01*
X127848097Y-93665900D01*
X115506052Y-93665900D01*
X115439013Y-93646215D01*
X115418371Y-93629581D01*
X115360837Y-93572047D01*
X115327352Y-93510724D01*
X115328743Y-93452272D01*
X115355663Y-93351808D01*
X115376259Y-93116400D01*
X115355663Y-92880992D01*
X115294503Y-92652737D01*
X115256358Y-92570936D01*
X115248137Y-92553305D01*
X115237645Y-92484228D01*
X115266165Y-92420444D01*
X115324641Y-92382204D01*
X115360519Y-92376900D01*
X127920681Y-92376900D01*
X127987720Y-92396585D01*
G37*
%TD.AperFunction*%
%TA.AperFunction,Conductor*%
G36*
X150632587Y-92085185D02*
G01*
X150653229Y-92101819D01*
X150699038Y-92147628D01*
X150732523Y-92208951D01*
X150734678Y-92222346D01*
X150744788Y-92318538D01*
X150732220Y-92387265D01*
X150684489Y-92438289D01*
X150621468Y-92455498D01*
X130511038Y-92455498D01*
X130443999Y-92435813D01*
X130409463Y-92402621D01*
X130310035Y-92260623D01*
X130287708Y-92194417D01*
X130304718Y-92126650D01*
X130355666Y-92078837D01*
X130411610Y-92065500D01*
X150565548Y-92065500D01*
X150632587Y-92085185D01*
G37*
%TD.AperFunction*%
%TA.AperFunction,Conductor*%
G36*
X116543500Y-90035805D02*
G01*
X116589255Y-90088609D01*
X116599199Y-90157767D01*
X116596236Y-90172214D01*
X116561728Y-90300999D01*
X116561728Y-90301000D01*
X117524914Y-90301000D01*
X117512959Y-90312955D01*
X117455435Y-90425852D01*
X117435614Y-90551000D01*
X117455435Y-90676148D01*
X117512959Y-90789045D01*
X117524914Y-90801000D01*
X116561728Y-90801000D01*
X116606960Y-90969806D01*
X116605297Y-91039656D01*
X116566135Y-91097519D01*
X116501906Y-91125023D01*
X116487185Y-91125900D01*
X115506052Y-91125900D01*
X115439013Y-91106215D01*
X115418371Y-91089581D01*
X115360837Y-91032047D01*
X115327352Y-90970724D01*
X115328743Y-90912272D01*
X115334301Y-90891531D01*
X115355663Y-90811808D01*
X115376259Y-90576400D01*
X115374185Y-90552700D01*
X115358608Y-90374656D01*
X115355663Y-90340992D01*
X115310439Y-90172211D01*
X115312102Y-90102364D01*
X115351264Y-90044501D01*
X115415493Y-90016997D01*
X115430214Y-90016120D01*
X116476461Y-90016120D01*
X116543500Y-90035805D01*
G37*
%TD.AperFunction*%
%TA.AperFunction,Conductor*%
G36*
X118033639Y-90035805D02*
G01*
X118079394Y-90088609D01*
X118090600Y-90140120D01*
X118090600Y-90235313D01*
X118078645Y-90223359D01*
X117965748Y-90165835D01*
X117872081Y-90151000D01*
X117809119Y-90151000D01*
X117715452Y-90165835D01*
X117602555Y-90223359D01*
X117590600Y-90235313D01*
X117590600Y-90140120D01*
X117610285Y-90073081D01*
X117663089Y-90027326D01*
X117714600Y-90016120D01*
X117966600Y-90016120D01*
X118033639Y-90035805D01*
G37*
%TD.AperFunction*%
%TA.AperFunction,Conductor*%
G36*
X124162982Y-90035805D02*
G01*
X124208737Y-90088609D01*
X124218681Y-90157767D01*
X124215718Y-90172213D01*
X124174964Y-90324308D01*
X124155131Y-90551000D01*
X124174964Y-90777689D01*
X124184106Y-90811807D01*
X124221402Y-90951000D01*
X124226442Y-90969806D01*
X124224779Y-91039656D01*
X124185617Y-91097519D01*
X124121388Y-91125023D01*
X124106667Y-91125900D01*
X119194015Y-91125900D01*
X119126976Y-91106215D01*
X119081221Y-91053411D01*
X119071277Y-90984253D01*
X119074240Y-90969806D01*
X119119472Y-90801000D01*
X118156286Y-90801000D01*
X118168241Y-90789045D01*
X118225765Y-90676148D01*
X118245586Y-90551000D01*
X118225765Y-90425852D01*
X118168241Y-90312955D01*
X118156286Y-90301000D01*
X119119472Y-90301000D01*
X119119471Y-90300999D01*
X119084964Y-90172214D01*
X119086627Y-90102364D01*
X119125789Y-90044501D01*
X119190018Y-90016997D01*
X119204739Y-90016120D01*
X124095943Y-90016120D01*
X124162982Y-90035805D01*
G37*
%TD.AperFunction*%
%TA.AperFunction,Conductor*%
G36*
X150016796Y-90510385D02*
G01*
X150057144Y-90552700D01*
X150100907Y-90628500D01*
X150117380Y-90696400D01*
X150094527Y-90762427D01*
X150039606Y-90805618D01*
X149993520Y-90814500D01*
X149252235Y-90814500D01*
X149208814Y-90801750D01*
X149174753Y-90814233D01*
X149166615Y-90814500D01*
X131408533Y-90814500D01*
X131341494Y-90794815D01*
X131295739Y-90742011D01*
X131285795Y-90672853D01*
X131314820Y-90609297D01*
X131320852Y-90602819D01*
X131321097Y-90602574D01*
X131382420Y-90569089D01*
X131408778Y-90566255D01*
X149165519Y-90566255D01*
X149192570Y-90569242D01*
X149193666Y-90569487D01*
X149208066Y-90577457D01*
X149217300Y-90571523D01*
X149248340Y-90566561D01*
X149256136Y-90566316D01*
X149260031Y-90566255D01*
X149283711Y-90566255D01*
X149287613Y-90566255D01*
X149291576Y-90565754D01*
X149303225Y-90564835D01*
X149346890Y-90563464D01*
X149366122Y-90557875D01*
X149385181Y-90553929D01*
X149391459Y-90553136D01*
X149405055Y-90551419D01*
X149445670Y-90535337D01*
X149456707Y-90531558D01*
X149498653Y-90519373D01*
X149515892Y-90509177D01*
X149533375Y-90500613D01*
X149536432Y-90499403D01*
X149582068Y-90490700D01*
X149949757Y-90490700D01*
X150016796Y-90510385D01*
G37*
%TD.AperFunction*%
%TA.AperFunction,Conductor*%
G36*
X116483639Y-87316585D02*
G01*
X116529394Y-87369389D01*
X116540600Y-87420900D01*
X116540600Y-87761000D01*
X117524914Y-87761000D01*
X117512959Y-87772955D01*
X117455435Y-87885852D01*
X117435614Y-88011000D01*
X117455435Y-88136148D01*
X117512959Y-88249045D01*
X117524914Y-88261000D01*
X116540600Y-88261000D01*
X116540600Y-88641120D01*
X116520915Y-88708159D01*
X116468111Y-88753914D01*
X116416600Y-88765120D01*
X115685273Y-88765120D01*
X115618234Y-88745435D01*
X115597592Y-88728801D01*
X115360837Y-88492046D01*
X115327352Y-88430723D01*
X115328743Y-88372272D01*
X115355663Y-88271808D01*
X115367729Y-88133902D01*
X115376259Y-88036400D01*
X115355663Y-87800992D01*
X115332376Y-87714082D01*
X115294503Y-87572737D01*
X115263054Y-87505296D01*
X115248137Y-87473305D01*
X115237645Y-87404228D01*
X115266165Y-87340444D01*
X115324641Y-87302204D01*
X115360519Y-87296900D01*
X116416600Y-87296900D01*
X116483639Y-87316585D01*
G37*
%TD.AperFunction*%
%TA.AperFunction,Conductor*%
G36*
X118090600Y-88641120D02*
G01*
X118070915Y-88708159D01*
X118018111Y-88753914D01*
X117966600Y-88765120D01*
X117714600Y-88765120D01*
X117647561Y-88745435D01*
X117601806Y-88692631D01*
X117590600Y-88641120D01*
X117590599Y-88326686D01*
X117602555Y-88338641D01*
X117715452Y-88396165D01*
X117809119Y-88411000D01*
X117872081Y-88411000D01*
X117965748Y-88396165D01*
X118078645Y-88338641D01*
X118090599Y-88326686D01*
X118090600Y-88641120D01*
G37*
%TD.AperFunction*%
%TA.AperFunction,Conductor*%
G36*
X138381451Y-85754585D02*
G01*
X138385523Y-85757317D01*
X138539266Y-85864968D01*
X138745504Y-85961139D01*
X138965308Y-86020035D01*
X139027089Y-86025439D01*
X139092158Y-86050890D01*
X139103965Y-86061286D01*
X139835498Y-86792819D01*
X139868983Y-86854142D01*
X139863999Y-86923834D01*
X139822127Y-86979767D01*
X139756663Y-87004184D01*
X139747817Y-87004500D01*
X137178953Y-87004500D01*
X137111914Y-86984815D01*
X137091272Y-86968181D01*
X137082960Y-86959869D01*
X137049475Y-86898546D01*
X137047323Y-86885168D01*
X137029674Y-86717244D01*
X136971179Y-86537216D01*
X136971179Y-86537215D01*
X136876533Y-86373283D01*
X136748266Y-86230829D01*
X136718036Y-86167838D01*
X136726661Y-86098503D01*
X136771402Y-86044837D01*
X136829609Y-86024329D01*
X136878692Y-86020035D01*
X137098496Y-85961139D01*
X137304734Y-85864968D01*
X137458465Y-85757324D01*
X137524671Y-85734998D01*
X137529588Y-85734900D01*
X138314412Y-85734900D01*
X138381451Y-85754585D01*
G37*
%TD.AperFunction*%
%TD*%
M02*
